<?xml version="1.0" encoding="UTF-8"?>
<svg id="Camada_2" data-name="Camada 2" xmlns="http://www.w3.org/2000/svg" viewBox="0 0 1660.29 58.86">
  <defs>
    <style>
      .cls-1 {
        fill-rule: evenodd;
      }

      .cls-1, .cls-2, .cls-3, .cls-4 {
        fill: #fff;
      }

      .cls-2 {
        font-size: 6.78px;
      }

      .cls-2, .cls-4 {
        font-family: Montserrat-Regular, Montserrat;
      }

      .cls-4 {
        font-size: 32.71px;
      }
    </style>
  </defs>
  <g id="Camada_1-2" data-name="Camada 1">
    <g id="Objeto_generativo" data-name="Objeto generativo">
      <g>
        <path class="cls-3" d="M386.17,32.76c2.98,3.04,7.75,2.71,10.55-.25l1.63,1.6c-2.12,2.38-5.09,3.28-8.19,2.98-5.58-.54-9.35-5.56-8.39-11.07.81-4.68,4.86-7.92,9.65-7.84,2.64.05,5.12,1.02,6.79,3.03l-1.61,1.53c-1.74-1.99-4.37-2.73-6.95-2.12s-4.4,2.54-5.1,4.72c-.87,2.68-.32,5.42,1.63,7.42Z"/>
        <path class="cls-3" d="M489.24,36.42c-3.21,1.49-7.74.69-9.95-1.91l1.57-1.57c2.54,2.74,7.78,2.76,8.66-.09.3-.98.17-1.99-.57-2.71s-1.74-1.06-2.73-1.39l-3.41-1.16c-1.46-.7-2.53-1.95-2.78-3.39-.29-1.65.21-3.25,1.44-4.35,2.67-2.39,7.63-2.12,10.14.39l-1.39,1.71c-2.24-2.24-6.74-2.14-7.58.44-.28.86-.17,1.73.44,2.4,1.91,2.08,9.36,1.54,9.06,7.28-.1,1.92-1.04,3.51-2.88,4.37Z"/>
        <path class="cls-3" d="M362.15,36.93l-2.66.03,7.91-16.13h-10.79s0-2.21,0-2.21h13.42c-.06.61.15,1.35-.08,1.97l-7.8,16.34Z"/>
        <path class="cls-3" d="M458.55,48.17l-.05-2.42-.99,1.74c-.07.12-.36.07-.43-.05l-.92-1.56-.11,2.23c0,.15-.54.18-.62.03v-3.69c.09-.14.55-.14.64.02l1.24,2.18,1.25-2.23c.08-.09.46-.09.63,0v3.78c-.17.04-.38.05-.65,0Z"/>
        <path class="cls-3" d="M432.67,48.11c0,.15-.53.13-.63-.01l-1.73-2.54-.06,2.61c-.27.07-.46.05-.64-.02l.02-3.71c.15-.16.62-.13.75.07l1.67,2.45.04-2.54c.16-.1.48-.09.62,0l-.04,3.7Z"/>
        <path class="cls-3" d="M387.29,47.51c-.31.51-.87.57-1.31.73.26.16.39.28.45.41.07.16.02.4-.19.55-.39.27-1.02.32-1.26-.23l.92-.2c-.14-.2-.39-.14-.47-.17-.1-.04-.17-.19-.08-.42-.84-.24-1.38-.88-1.47-1.56-.14-.99.32-1.74,1.01-2.08.86-.43,1.83-.19,2.38.52-.55.74-.91-.36-1.83-.09-.44.13-.77.47-.87,1.01-.11.59.1,1.18.57,1.44.52.28,1.18.22,1.65-.26.17-.17.61.19.51.36Z"/>
        <path class="cls-3" d="M453.83,46.51l-1.69.02-.03,1.03,1.82.05c.15,0,.15.55,0,.55l-2.5.04v-3.83s2.49,0,2.49,0c.11.15.08.51-.02.6h-1.76c-.09.29-.08.59-.02.93l1.37.02c.16,0,.41.13.33.59Z"/>
        <path class="cls-3" d="M396.23,46.52h-1.55c-.15.31-.14.66-.06,1.04l1.85.02c.03.22.03.37,0,.62h-2.52s0-3.82,0-3.82h2.5s.01.61.01.61l-1.83.02v.93s1.6,0,1.6,0c.03.13.06.28.01.59Z"/>
        <path class="cls-3" d="M416,46.52l-1.63.03c-.09.39-.08.66-.01,1.02h1.84s0,.63,0,.63h-2.54s0-3.82,0-3.82l2.49-.03c.06.18.07.38.02.61l-1.8.03c-.08.37-.07.65,0,.95h1.42c.09-.02.33.19.21.58Z"/>
        <path class="cls-3" d="M411.53,44.45c0-.14.5-.15.58-.03v2.5c-.01.84-.74,1.33-1.47,1.32-.76-.01-1.42-.52-1.43-1.37l-.02-2.47c.18-.04.34-.06.66-.04v2.46c.02.49.4.78.79.8.48.01.82-.34.84-.88l.05-2.29Z"/>
        <rect class="cls-3" x="359.24" y="41.79" width=".67" height="8.64" transform="translate(313.35 405.67) rotate(-89.98)"/>
        <path class="cls-3" d="M381.8,44.46c.05-.12.41-.18.63-.05l-.04,2.67c-.01.76-.71,1.13-1.35,1.15-.69.02-1.47-.35-1.49-1.15l-.04-2.68c.26-.07.43-.06.66,0v2.35c0,.5.32.82.71.85.5.04.89-.28.9-.85l.02-2.31Z"/>
        <path class="cls-3" d="M482.8,44.46c.05-.12.41-.17.64-.06l-.02,2.52c0,.9-.76,1.32-1.54,1.3-.84-.03-1.36-.69-1.35-1.62l.02-2.2c.21-.06.38-.08.65-.01v2.36c0,.49.31.82.68.86.51.05.89-.29.9-.84l.02-2.3Z"/>
        <path class="cls-3" d="M475.33,44.44c0-.14.54-.14.59-.02v2.49c0,.82-.65,1.31-1.32,1.32-.8.02-1.52-.43-1.53-1.31l-.02-2.53c.28-.07.45-.05.66,0v2.36c.01.51.32.82.73.85.49.03.84-.3.85-.86l.04-2.32Z"/>
        <path class="cls-3" d="M399.8,48.11c-.84.31-1.65,0-2.04-.65.1-.18.43-.4.53-.32.26.21.42.41.65.45.31.06.8,0,.89-.37.21-.86-1.86-.53-1.85-1.81,0-.57.39-1.02,1.02-1.09s1.17.16,1.4.62c-.57.8-.67-.18-1.41,0-.23.05-.45.26-.32.55.25.57,1.67.37,1.85,1.4.08.48-.15,1.01-.72,1.22Z"/>
        <rect class="cls-3" x="494.72" y="45.78" width="8.49" height=".67"/>
        <path class="cls-3" d="M420.45,45.96c-.14.68.17,1.26.61,1.48,1.2.61,1.72-.98,2.11.07-.65.86-1.98.95-2.77.26s-.88-2.02-.17-2.83,2.15-.86,2.86.08c-.45.88-.81-.31-1.74-.05-.41.11-.8.44-.91,1Z"/>
        <path class="cls-3" d="M436.53,47.8c-.79.76-1.99.47-2.49-.33.57-.79.65.14,1.47.15.26,0,.67-.16.61-.55-.1-.66-1.98-.47-1.85-1.81.06-.56.54-.92,1.15-.94.56-.01,1.03.2,1.25.64-.15.18-.41.35-.55.31-.2-.21-.4-.35-.63-.36s-.59.11-.58.44c.02.7,1.33.47,1.75,1.23.18.33.24.87-.13,1.23Z"/>
        <path class="cls-3" d="M369.27,47.51c-.28.59-.84.74-1.37.72s-1.03-.29-1.34-.78c.18-.2.35-.29.58-.34.2.33.45.46.75.51s.82-.11.79-.51c-.04-.62-1.31-.52-1.71-1.2-.21-.36-.22-.77,0-1.09.29-.43.75-.53,1.22-.5.4.03.81.24,1.04.63-.54.65-.88-.32-1.54.03-.19.1-.27.33-.17.55.21.42,1.1.36,1.55.84.24.26.39.7.19,1.13Z"/>
        <path class="cls-3" d="M471.81,46.02c.12,0,.15.55.03.56l-1.45.05-.03,1.55c-.19.03-.35.04-.66,0l.02-3.8h2.3c.14.11.14.41.07.6l-1.69.02c-.09.36-.09.64,0,.99l1.41.04Z"/>
        <path class="cls-3" d="M478.59,48.14c-.13.08-.36.1-.67.06v-3.17c-.41-.09-.65-.08-1.02-.04-.05-.2-.07-.36,0-.63h2.66c.05.26.05.43.01.63l-.99.03v3.12Z"/>
        <path class="cls-3" d="M439.67,48.13c-.17.09-.39.11-.67.04v-3.15c-.33-.08-.63-.07-1.04-.04-.05-.19-.07-.36,0-.63l2.8.02v.61s-1.09.03-1.09.03v3.12Z"/>
        <path class="cls-3" d="M378.19,47.57c.07.21.07.38.02.63h-2.34s-.01-3.8-.01-3.8c.26-.06.43-.06.68,0l-.02,3.16h1.66Z"/>
        <path class="cls-3" d="M391.01,44.01c-.5-.19-.9-.28-1.31-.03-.24-.24-.1-.5,0-.59.49-.5.93.22,1.77-.19.12.29-.19.77-.46.81Z"/>
        <path class="cls-3" d="M415.29,18.12c-5.27,0-9.54,4.28-9.54,9.55s4.27,9.55,9.54,9.55,9.55-4.27,9.55-9.55-4.27-9.55-9.55-9.55ZM415.31,34.84c-3.96,0-7.17-3.21-7.17-7.17s3.21-7.17,7.17-7.17,7.17,3.21,7.17,7.17-3.21,7.17-7.17,7.17Z"/>
        <path class="cls-3" d="M464.03,18.51l-2.5.05-7.9,18.41h2.63s1.93-4.67,1.93-4.67l9.07.03,1.97,4.67,2.69-.04-7.89-18.45ZM459.06,30.14l3.68-8.91,3.63,8.88-7.31.03Z"/>
        <path class="cls-3" d="M445.98,20.54c-1.17-1.27-2.8-1.94-4.54-1.94l-7-.02v18.39h2.4v-6.87s5.11-.04,5.11-.04c1.61-.02,2.95-.8,4.03-1.89,1.62-2.27,1.71-5.39,0-7.63ZM441.34,27.99l-4.49.04v-7.35s4.55.04,4.55.04c1.92.01,3.36,1.62,3.34,3.63.02,2.07-1.45,3.62-3.4,3.64Z"/>
        <path class="cls-3" d="M407.25,47.61c.55-.74.65-1.63.21-2.39-.4-.69-1.21-1.06-2.15-.83-.64.15-1.27.74-1.36,1.59-.09.78.2,1.48.71,1.87.65.5,1.32.37,2.1.27.24-.03.67.59,1.1-.06l-.61-.45ZM406.83,47.09c-.24-.28-.35-.46-.47-.54-.13-.08-.4.17-.41.3-.03.16.15.38.42.63-.79.41-1.58-.07-1.75-.98-.14-.74.36-1.62,1.31-1.57.51.03.91.4,1.03.77.17.49.13.98-.13,1.39Z"/>
        <path class="cls-3" d="M372.5,44.3c-1.08,0-1.96.88-1.96,1.96s.88,1.97,1.96,1.97,1.96-.88,1.96-1.97-.88-1.96-1.96-1.96ZM372.5,47.58c-.73,0-1.32-.59-1.32-1.32s.59-1.32,1.32-1.32,1.32.59,1.32,1.32-.59,1.32-1.32,1.32Z"/>
        <path class="cls-3" d="M390.55,44.32c-1.08,0-1.96.88-1.96,1.96s.88,1.95,1.96,1.95,1.95-.87,1.95-1.95-.87-1.96-1.95-1.96ZM390.54,47.58c-.72,0-1.32-.59-1.32-1.32s.6-1.32,1.32-1.32,1.32.59,1.32,1.32-.59,1.32-1.32,1.32Z"/>
        <path class="cls-3" d="M464.58,44.31c-1.09,0-1.97.87-1.97,1.96s.88,1.96,1.97,1.96,1.96-.88,1.96-1.96-.88-1.96-1.96-1.96ZM464.58,47.58c-.73,0-1.32-.59-1.32-1.32s.59-1.31,1.32-1.31,1.31.59,1.31,1.31-.59,1.32-1.31,1.32Z"/>
        <path class="cls-3" d="M486.71,46.63c.53-.28.74-.68.68-1.21-.11-1.08-1.31-1.15-2.7-1.03v3.78c.2.04.37.06.65,0l.02-1.46c1.35-.24.82,1.94,2.14,1.41l-.79-1.49ZM485.35,46.1v-1.08c.34-.09.79-.13,1.14.07.34.2.3.76-.06.97-.43.09-.74.07-1.08.04Z"/>
        <path class="cls-3" d="M448.08,44.3c-1.09,0-1.97.88-1.97,1.97s.88,1.96,1.97,1.96,1.96-.88,1.96-1.96-.88-1.97-1.96-1.97ZM448.07,47.58c-.73,0-1.32-.59-1.32-1.32s.59-1.32,1.32-1.32,1.33.59,1.33,1.32-.6,1.32-1.33,1.32Z"/>
        <path class="cls-3" d="M426.3,44.31c-1.08,0-1.95.87-1.95,1.96s.87,1.96,1.95,1.96,1.96-.88,1.96-1.96-.87-1.96-1.96-1.96ZM426.31,47.58c-.73,0-1.32-.59-1.32-1.32s.59-1.32,1.32-1.32,1.32.59,1.32,1.32-.59,1.32-1.32,1.32Z"/>
        <path class="cls-3" d="M444.08,46.65c.61-.3.82-.78.7-1.37-.08-.39-.46-.86-.99-.87l-1.72-.03v3.79c.23.05.4.06.67.01l.03-1.48c1.34-.14.84,1.9,2.15,1.44l-.84-1.49ZM443.83,46.05c-.43.1-.74.08-1.08.06v-1.09c.36-.09.8-.13,1.17.06.35.19.31.78-.09.97Z"/>
        <path class="cls-3" d="M490.35,44.31c-1.08,0-1.96.88-1.96,1.96s.88,1.95,1.96,1.95,1.95-.87,1.95-1.95-.87-1.96-1.95-1.96ZM490.35,47.57c-.72,0-1.31-.58-1.31-1.31s.59-1.31,1.31-1.31,1.32.59,1.32,1.31-.59,1.31-1.32,1.31Z"/>
        <g>
          <polygon class="cls-3" points="322.98 43.7 322.98 11.59 294.78 30.28 294.75 25.75 326.9 4.45 326.9 43.69 322.98 43.7"/>
          <polygon class="cls-3" points="322.7 48.31 336.16 48.31 336.15 34.63 330.36 30.86 330.39 26.44 340.03 32.62 340.04 52.18 322.7 52.18 322.7 48.31"/>
          <polygon class="cls-3" points="305.49 34.24 294.76 41.25 294.72 36.76 309.41 27.14 309.4 52.16 305.51 52.18 305.49 34.24"/>
          <polygon class="cls-3" points="318.35 52.13 314.41 52.16 314.41 24.22 318.35 21.7 318.35 52.13"/>
        </g>
      </g>
    </g>
    <g>
      <text class="cls-2" transform="translate(1067.386 57.088)"><tspan x="0" y="0">C</tspan></text>
      <g>
        <polygon class="cls-1" points="1141.27 7.58 1150.09 7.58 1131.05 46.96 1120.98 46.96 1120.98 46.96 1121 46.96 1110.59 23.83 1118.4 23.83 1126 40.19 1141.27 7.58"/>
        <rect class="cls-3" x="1144.47" y="23.76" width="7.7" height="23.2"/>
        <path class="cls-1" d="M1167.01,36.39h5.98l-3.01-6.08-2.97,6.08ZM1176,23.83l10.41,23.13h-8.92l-1.75-3.9h-11.47l-1.75,3.9h-8.86l10.38-23.13h11.96Z"/>
        <polygon class="cls-1" points="1103.37 27.44 1117.13 0 1108.04 0 1094.99 27.44 1103.37 27.44"/>
        <polygon class="cls-1" points="1122.88 28.22 1113.34 7.57 1117.08 .09 1126.53 20.62 1122.88 28.22"/>
        <text class="cls-4" transform="translate(1032.4075 46.8287)"><tspan x="0" y="0">No</tspan></text>
        <text class="cls-4" transform="translate(1078.1057 46.8287)"><tspan x="0" y="0">v</tspan></text>
        <text class="cls-4" transform="translate(1094.3294 46.8287)"><tspan x="0" y="0">a</tspan></text>
        <text class="cls-2" transform="translate(1075.4768 57.088)"><tspan x="0" y="0">O</tspan></text>
        <text class="cls-2" transform="translate(1084.4387 57.088)"><tspan x="0" y="0">N</tspan></text>
        <text class="cls-2" transform="translate(1093.2815 57.088)"><tspan x="0" y="0">S</tspan></text>
        <text class="cls-2" transform="translate(1100.9173 57.088)"><tspan x="0" y="0">T</tspan></text>
        <text class="cls-2" transform="translate(1108.221 57.088)"><tspan x="0" y="0">R</tspan></text>
        <text class="cls-2" transform="translate(1116.5823 57.088)"><tspan x="0" y="0">U</tspan></text>
        <text class="cls-2" transform="translate(1125.2063 57.088)"><tspan x="0" y="0">T</tspan></text>
        <text class="cls-2" transform="translate(1132.2122 57.088)"><tspan x="0" y="0">O</tspan></text>
        <text class="cls-2" transform="translate(1141.177 57.088)"><tspan x="0" y="0">R</tspan></text>
        <text class="cls-2" transform="translate(1149.5364 57.088)"><tspan x="0" y="0">A</tspan></text>
      </g>
    </g>
    <g id="Objeto_generativo-2" data-name="Objeto generativo">
      <g>
        <path class="cls-3" d="M1310.58,12.68c-3.85-4.19-9.85-7.44-15.65-7.44l-30.87-.03v22.87l-9.07,5v21.19s40.06-.04,40.06-.04c3.59,0,7.97-1.68,11.09-3.7,6.88-4.45,10.81-11.99,11.05-20.11.19-6.47-2.21-12.96-6.61-17.75ZM1302.1,50.03c-2.32.99-4.72,1.87-7.33,1.87l-37.68.07v-17.5s6.97-3.9,6.97-3.9v16.43h2.28v-17.67l13.24-7.32,22.37,14.08,1.17-1.77-17.9-11.21-5.62-3.56-13.25,7.31V7.57s28.87,0,28.87,0c2.77.2,5.32.91,7.75,2.21,3.93,2.12,6.9,5.09,9.06,9,1.66,3.01,2.61,6.28,2.8,9.74.51,8.95-4.37,17.94-12.73,21.51Z"/>
        <g>
          <g>
            <rect class="cls-3" x="1354.74" y="4.9" width="1.2" height="63.94" transform="translate(1318.4085 1392.2112) rotate(-89.9974)"/>
            <polygon class="cls-3" points="1341.64 43.28 1338.5 40.3 1338.47 43.17 1337.87 43.17 1337.92 39.05 1341.08 42.04 1341.1 39.17 1341.7 39.17 1341.64 43.28"/>
            <path class="cls-3" d="M1370.07,42.37c-.79.95-1.84.69-2.04.9-.18.18.34.16.42.37.05.12,0,.36-.17.44-.4.18-.88.19-1.34-.02.25-.28.52-.19.84-.15-.04-.21-.25-.18-.32-.23-.07-.06.04-.29.17-.45-.72-.13-1.41-.29-1.87-.9-.61-.82-.54-1.97.32-2.61,1.88-1.4,4.61.07,3.67.44-.18.07-.29,0-.49-.15-.85-.62-2.16-.52-2.9.23-.58.59-.51,1.5.09,1.99.93.76,2.2.67,3.11-.07.12-.06.41.09.49.22Z"/>
            <path class="cls-3" d="M1382.59,41.23h-2.2s-.02,1.49-.02,1.49h2.26c.09.09.09.29.04.46h-2.91s.01-4,.01-4h2.81c.08.06.1.33.02.44h-2.22s.01,1.14.01,1.14l2.22.03c.06.05.07.35,0,.44Z"/>
            <path class="cls-3" d="M1324.63,42.26c1.49,1.17,2.83-.05,3.12-.13.14-.04.46.23.33.34-1,.89-2.48.98-3.6.35-.86-.48-1.24-1.49-.85-2.37.72-1.65,3.47-1.72,4.44-.56.09.1-.2.29-.33.29-.16,0-1.39-1.22-3-.18-.4.26-.58.62-.62,1.02-.05.44.08.89.51,1.24Z"/>
            <path class="cls-3" d="M1362.37,39.27c0-.16.4-.17.55-.06l-.02,2.75c0,.89-.87,1.35-1.73,1.28-.62-.05-1.45-.34-1.47-1.04l-.07-3.02h.58s.06,2.91.06,2.91c.01.48.6.66.97.68.42.03,1.04-.18,1.06-.68l.07-2.81Z"/>
            <path class="cls-3" d="M1346.64,42.59c-.33.55-.95.67-1.53.62-.43-.04-1.02-.36-1.23-.86,0-.16.47-.26.57-.13.34.46.82.71,1.35.43.19-.1.31-.29.32-.47,0-.19-.08-.38-.27-.51l-1.27-.87c-.28-.19-.42-.45-.42-.76s.17-.62.52-.78c.68-.31,1.45-.12,1.97.49-.13.18-.3.28-.53.33-.25-.4-.69-.6-1.13-.38-.14.07-.2.24-.2.34,0,.15.08.32.24.43l1.22.81c.39.26.68.83.39,1.32Z"/>
            <path class="cls-3" d="M1386.89,41.24c.51.34.73,1,.36,1.47s-.94.59-1.56.48c-.41-.07-1.02-.41-1.12-.91.74-.48.69.64,1.67.46.24-.05.69-.34.53-.72-.22-.52-.85-.76-1.31-1.07-.49-.32-.88-.95-.42-1.45.63-.69,1.82-.44,2.27.27-.19.18-.32.25-.51.3-.23-.32-.54-.52-.95-.46-.2.03-.33.18-.36.31-.06.2.03.39.22.52l1.19.78Z"/>
            <path class="cls-3" d="M1350.54,43.16l-.56.02-.03-3.54-1.08-.03c-.08-.08-.06-.39.02-.44h2.7c.04.13.05.25.01.45h-1.06s0,3.54,0,3.54Z"/>
            <path class="cls-3" d="M1376.07,38.6c-.37.69-1.53-.02-1.9.14-.15.06-.24.12-.32.11-.09-.01-.33-.22-.26-.32.49-.74,1.43.12,2.11-.23.13-.07.45.15.37.3Z"/>
            <path class="cls-3" d="M1334.47,39.52c-.87-.51-1.96-.51-2.89-.08-.66.3-1.07.93-1.13,1.56-.05.71.27,1.38.9,1.78.96.6,2.23.62,3.22-.03.64-.42.92-1.07.88-1.75-.04-.57-.41-1.13-.99-1.48ZM1334.66,41.86c-.37.63-1.05.88-1.65.9-.67.02-1.36-.24-1.75-.86-.4-.65-.16-1.53.48-1.94.74-.49,1.69-.47,2.43,0,.62.4.91,1.22.5,1.9Z"/>
            <path class="cls-3" d="M1355.59,41.33c.79.07,1.38-.3,1.47-.93.08-.63-.4-1.18-1.09-1.19l-1.98-.03v3.98h.59c.05-.63-.13-1.23.11-1.87l1.75,1.82c.17.17.58.11.73,0l-1.58-1.78ZM1354.6,40.89l-.03-1.22c.88-.09,1.76-.08,1.86.49.05.26-.1.56-.45.66-.47.13-.91.08-1.38.08Z"/>
            <path class="cls-3" d="M1376.34,39.51c-.94-.54-2.16-.51-3.11.06-.6.36-.92,1.01-.91,1.65,0,.59.32,1.19.9,1.56.92.59,2.18.62,3.16.03.66-.41.97-1.04.96-1.7,0-.63-.38-1.24-1.01-1.6ZM1376.53,41.87c-.66,1.04-2.08,1.16-2.98.48-.39-.3-.58-.7-.59-1.13-.02-.42.16-.85.53-1.14.72-.57,1.69-.62,2.48-.16.65.37,1.03,1.23.57,1.96Z"/>
          </g>
          <g>
            <path class="cls-3" d="M1367.69,17.62l2.05-.02-.05,11.22c-.01,2.69-1.77,4.88-4.32,5.64-2.93.87-6.75.14-8.52-2.5-.59-.87-.89-1.94-.9-3.03l-.05-11.34h2.07s.06,11.23.06,11.23c0,1.59.83,2.9,2.28,3.52s3.17.73,4.69.18c1.69-.61,2.63-2.25,2.64-4.06l.05-10.85Z"/>
            <polygon class="cls-3" points="1387.48 34.32 1384.95 34.36 1379.99 27.32 1374.93 34.34 1372.45 34.32 1378.73 25.61 1373 17.62 1375.46 17.63 1380.1 24.04 1384.71 17.59 1387.17 17.63 1381.3 25.62 1387.48 34.32"/>
            <polygon class="cls-3" points="1353.72 32.45 1353.72 34.35 1344.26 34.35 1344.27 17.61 1346.3 17.61 1346.3 32.45 1353.72 32.45"/>
            <path class="cls-3" d="M1342.74,20.27c-.46.19-.92.14-1.39.06l-1-2.68,2.19-.04.2,2.66Z"/>
            <path class="cls-3" d="M1339.76,24.07c-.51-2.45-2.16-4.35-4.42-5.4-1.41-.64-2.86-1.02-4.45-1.03l-7.5-.07v16.78s7.76-.02,7.76-.02c1.53,0,2.92-.36,4.28-.97,3.66-1.73,5.14-5.41,4.33-9.29ZM1337.76,26.99c-.29,2.22-1.6,3.93-3.63,4.73-1.17.47-2.4.72-3.7.72l-5.05.02v-12.97l5.4.05c1.75.02,3.36.57,4.74,1.59,1.79,1.39,2.53,3.57,2.24,5.86Z"/>
          </g>
        </g>
      </g>
    </g>
    <g id="Objeto_generativo-3" data-name="Objeto generativo">
      <g>
        <path class="cls-3" d="M615.76,45.68c.71.07,1.33-.09,1.93-.4l.02,1.45c-1.15.42-2.51.46-3.64-.13s-1.73-1.79-1.76-2.99.57-2.49,1.73-3.12,2.52-.58,3.75-.13l-.13,1.42c-.9-.38-1.84-.58-2.73-.16s-1.29,1.36-1.12,2.3.88,1.65,1.94,1.76Z"/>
        <path class="cls-3" d="M683.47,41.44h1.46s0,3.03,0,3.03c0,1.62-1.33,2.64-2.89,2.56-1.35-.07-2.49-.91-2.51-2.34l-.03-3.25h1.41s.04,2.99.04,2.99c0,.76.61,1.26,1.28,1.26.73,0,1.24-.55,1.25-1.32v-2.92Z"/>
        <path class="cls-3" d="M640.39,44.02c0-.79-.6-1.28-1.26-1.29-.71-.01-1.33.52-1.33,1.29v2.88s-1.42,0-1.42,0v-2.99c0-1.53,1.21-2.52,2.69-2.54s2.76.99,2.75,2.53v3s-1.43.02-1.43.02v-2.9Z"/>
        <path class="cls-3" d="M653.17,45.63c-.36,1.65-2.83,1.48-4.63,1.09l.06-1.22c1.29.22,3.11.52,3.16-.16.05-.76-1.56-.44-2.63-1.04-.59-.33-.68-1.02-.55-1.62.33-1.51,2.57-1.43,4.28-1.05l-.06,1.27c-1.22-.34-2.89-.46-2.89.14s1.57.35,2.64.94c.6.33.77,1,.62,1.65Z"/>
        <path class="cls-3" d="M661.26,42.82l.02,1.52c.01.91.78,1.46,1.74,1.33.12.42.09.78.1,1.28-.81.11-1.68.05-2.35-.51-.61-.5-.97-1.3-.97-2.1l-.03-4.21h1.48s.01,1.39.01,1.39l1.66.02v1.28s-1.66,0-1.66,0Z"/>
        <path class="cls-3" d="M693.15,42.81l-.03,1.32c-.01.47.15.91.45,1.19.36.33.82.44,1.39.38l.08,1.26c-.68.07-1.43.07-2.08-.3-.8-.45-1.27-1.35-1.27-2.28l-.02-4.25h1.44s0,1.4,0,1.4l1.68.02v1.3s-1.63-.02-1.63-.02Z"/>
        <path class="cls-3" d="M671.19,46.91h-1.46s.02-3,.02-3c0-1.13.71-2.03,1.78-2.37l1.58-.23-.05,1.48c-.89-.15-1.85.24-1.85,1.18v2.94Z"/>
        <path class="cls-3" d="M715.06,43.99l-.03,2.92h-1.41s.02-3.01.02-3.01c.01-1.76,1.61-2.63,3.37-2.59l-.07,1.42-.73.07c-.63.06-1.14.5-1.15,1.19Z"/>
        <path class="cls-3" d="M728.87,44.11c.04-1.49-1-2.61-2.49-2.71-.89-.06-1.76.2-2.34.8-.61.63-.86,1.5-.76,2.4.15,1.47,1.28,2.51,2.77,2.43.65-.04,1.19-.29,1.57-.83l.15.74,1.23-.03-.14-2.79ZM726.31,45.7c-.75.09-1.39-.38-1.57-1.17-.2-.87.24-1.68,1.1-1.83.88-.15,1.65.38,1.68,1.38.02.87-.41,1.52-1.2,1.62Z"/>
        <path class="cls-3" d="M627.08,41.35c-1.57,0-2.85,1.28-2.85,2.86s1.28,2.85,2.85,2.85,2.86-1.28,2.86-2.85-1.28-2.86-2.86-2.86ZM627.1,45.68c-.81,0-1.48-.66-1.48-1.48s.67-1.48,1.48-1.48,1.48.66,1.48,1.48-.66,1.48-1.48,1.48Z"/>
        <path class="cls-3" d="M704.28,41.36c-1.57,0-2.85,1.28-2.85,2.85s1.28,2.84,2.85,2.84,2.85-1.27,2.85-2.84-1.28-2.85-2.85-2.85ZM704.3,45.68c-.83,0-1.49-.67-1.49-1.5s.66-1.49,1.49-1.49,1.49.67,1.49,1.49-.67,1.5-1.49,1.5Z"/>
        <g>
          <g>
            <polygon class="cls-3" points="658.3 34.36 653.9 34.38 653.91 19.66 648.35 19.66 648.35 15.63 663.91 15.63 663.92 19.65 658.29 19.66 658.3 34.36"/>
            <polygon class="cls-3" points="657.35 33.36 654.86 33.42 654.85 18.71 649.29 18.71 649.27 16.59 662.97 16.58 662.97 18.7 657.35 18.71 657.35 33.36"/>
          </g>
          <g>
            <path class="cls-3" d="M640.39,15.61l-4.13.02-7.71,18.74h4.7l1.56-4.07h6.97s1.55,4.09,1.55,4.09h4.7s-7.63-18.78-7.63-18.78ZM636.37,26.34l1.92-5.25,1.92,5.23h-3.85Z"/>
            <g>
              <path class="cls-3" d="M639.76,16.55h-2.9l-6.84,16.83,2.48.04,1.67-4.12h8.08c.15.09.26.3.33.48l1.42,3.65h2.61s-6.84-16.87-6.84-16.87ZM636.37,26.34l1.92-5.25,1.92,5.23h-3.85Z"/>
              <path class="cls-3" d="M638.57,19.35c-.09-.24-.74.12-.7.38l-2.16,5.65-.55,1.84h6.35l-2.94-7.87ZM638.29,21.09l1.92,5.23h-3.85s1.92-5.23,1.92-5.23Z"/>
            </g>
          </g>
          <g>
            <path class="cls-3" d="M625.53,16.65c-1.24-.68-2.6-1.01-4.05-1.01h-8.09s0,18.75,0,18.75h4.35s0-6.18,0-6.18h3.86c1.34,0,2.59-.34,3.78-1.02,1.33-.78,2.25-1.95,2.65-3.39.75-2.7,0-5.73-2.5-7.14ZM623.91,21.78c.1,1.31-.84,2.24-2.1,2.37l-4.07.04v-4.57l4.09.03c1.17.07,2.13.87,2.08,2.13Z"/>
            <g>
              <path class="cls-3" d="M625.34,17.65c-1.02-.67-2.16-1.05-3.4-1.05l-7.59-.02v16.84s2.45-.01,2.45-.01v-6.11l5.15-.04c1.47,0,2.87-.57,3.95-1.62,2.1-2.05,1.96-6.2-.56-7.98ZM621.82,24.15l-4.07.04v-4.57l4.09.03c1.17.07,2.13.87,2.08,2.13.1,1.31-.84,2.24-2.1,2.37Z"/>
              <path class="cls-3" d="M622.05,18.74l-5.25-.05v6.45l5.05-.06c1.69-.12,3-1.31,3.02-3.08.14-1.73-1.11-3.25-2.82-3.27ZM621.82,24.15l-4.07.04v-4.57l4.09.03c1.17.07,2.13.87,2.08,2.13.1,1.31-.84,2.24-2.1,2.37Z"/>
            </g>
          </g>
          <g>
            <path class="cls-3" d="M676.93,27.62c1.44-.67,2.42-1.52,3.08-2.76.83-1.74.94-3.69.26-5.49-.47-1.24-1.32-2.18-2.48-2.81-1.17-.62-2.43-.91-3.8-.91l-8.16-.02v18.76h4.38v-8.22s6.67,8.22,6.67,8.22h5.29s-5.23-6.77-5.23-6.77ZM670.2,24.5v-4.86s4.01.04,4.01.04c1.26.01,2.23.99,2.1,2.34.06,1.35-.87,2.28-2.14,2.42l-3.97.07Z"/>
            <path class="cls-3" d="M677.29,33.42l-6.47-7.97,3.17-.05c.99-.02,1.95-.44,2.56-1.23.86-1.1.96-2.61.37-3.86-.65-1.01-1.71-1.59-2.93-1.59h-4.76s.01,14.72.01,14.72h-2.47s0-16.85,0-16.85h7.1c.87,0,1.68.09,2.48.37,2.02.64,3.31,2.42,3.36,4.54.12,4.82-3.8,5.24-4.06,5.75-.04.08-.05.24.04.36l4.55,5.82h-2.96Z"/>
          </g>
          <g>
            <path class="cls-3" d="M692.19,15.33c-5.33,0-9.65,4.32-9.65,9.65s4.32,9.64,9.65,9.64,9.65-4.31,9.65-9.64-4.32-9.65-9.65-9.65ZM687.55,22.42c.81-1.93,2.64-3.06,4.72-3.02,2.01.04,3.7,1.14,4.53,2.99.86,1.92.73,4.19-.41,5.98-1.13,1.76-3.24,2.55-5.31,2.09-3.63-.8-4.88-4.83-3.53-8.04Z"/>
            <path class="cls-3" d="M692.19,16.29c-4.8,0-8.69,3.89-8.69,8.69s3.89,8.69,8.69,8.69,8.69-3.89,8.69-8.69-3.89-8.69-8.69-8.69ZM696.39,28.37c-1.13,1.76-3.24,2.55-5.31,2.09-3.63-.8-4.88-4.83-3.53-8.04.81-1.93,2.64-3.06,4.72-3.02,2.01.04,3.7,1.14,4.53,2.99.86,1.92.73,4.19-.41,5.98Z"/>
            <path class="cls-3" d="M697.85,22.47c-.88-2.6-3.32-4.17-6.05-4-2.54.16-4.63,1.79-5.36,4.22-1.08,3.64.33,7.71,4.33,8.64,2.71.64,5.5-.5,6.74-2.99.91-1.84.99-3.95.34-5.88ZM696.39,28.37c-1.13,1.76-3.24,2.55-5.31,2.09-3.63-.8-4.88-4.83-3.53-8.04.81-1.93,2.64-3.06,4.72-3.02,2.01.04,3.7,1.14,4.53,2.99.86,1.92.73,4.19-.41,5.98Z"/>
          </g>
          <g>
            <g>
              <rect class="cls-3" x="716.25" y="22.82" width="18.77" height="4.39" transform="translate(700.54 750.64) rotate(-89.99)"/>
              <rect class="cls-3" x="724.38" y="16.57" width="2.51" height="16.85"/>
            </g>
            <g>
              <polygon class="cls-3" points="720.24 34.36 716.16 34.39 708.39 23.34 708.38 34.39 704.07 34.39 704.06 15.66 708.24 15.63 715.88 26.62 715.91 15.64 720.24 15.64 720.24 34.36"/>
              <path class="cls-3" d="M719.32,33.36l-2.67.05-8.45-11.97c-.2-.28-.38-.42-.77-.35v12.31s-2.42,0-2.42,0v-16.84s2.74,0,2.74,0l8.49,12.17c.1.14.34.17.57.12v-12.29s2.5,0,2.5,0v16.78Z"/>
            </g>
          </g>
        </g>
        <g>
          <g>
            <polygon class="cls-3" points="574.01 20.1 574.01 35.04 578.27 35.04 578.26 40.55 574 40.55 574 50.89 568.41 50.89 568.39 14.37 605 14.37 605.01 40.54 585.32 40.54 585.32 35.03 599.36 35.03 599.36 20.1 574.01 20.1"/>
            <polygon class="cls-3" points="573.02 19.16 573 35.99 577.27 36.01 577.27 39.56 573.02 39.57 573.01 49.92 569.35 49.94 569.35 15.33 604.03 15.34 604.04 39.57 586.34 39.57 586.32 36.01 600.33 36.01 600.33 19.17 573.02 19.16"/>
          </g>
          <g>
            <polygon class="cls-3" points="584.68 45.41 605.03 45.42 605.03 50.89 578.77 50.89 578.77 24.72 596.76 24.72 596.76 30.31 584.67 30.3 584.68 45.41"/>
            <polygon class="cls-3" points="583.7 46.38 604.04 46.38 604.04 49.94 579.8 49.93 579.79 25.71 595.76 25.71 595.77 29.3 583.7 29.29 583.7 46.38"/>
          </g>
        </g>
      </g>
    </g>
    <g id="Objeto_generativo-4" data-name="Objeto generativo">
      <g>
        <path class="cls-3" d="M1513.16,48.59h-13.24s2.6-2.69,2.6-2.69l11.07-11.12v13.38c0,.24-.22.4-.43.43Z"/>
        <g>
          <path class="cls-3" d="M1532.43,35.68l-.03,13.04h-5.01s0-24.87,0-24.87c.62-.11,1.13-.1,1.75,0l10.18,13.13,10.31-13.17,1.71-.04v24.93s-5.05.01-5.05.01l-.02-13.03-6.1,7.61c-.58.13-1.14.12-1.72,0l-6.02-7.62Z"/>
          <path class="cls-3" d="M1589.81,30.36c-.21.54-.62.83-1.1,1.09l-1.68.9c-.2.09-.36.64-.27.84.37.9-.02,1.55.52,2.06.13.12.39.01.71.11.38.11-.6.79-.2,1.21-.06.03-.14.22-.2.2-.04-.01-.08-.12-.13-.19l-2.3-2.81-.07,1c-.97-.04-1.83-.02-2.73.16-2.06.41-3.38,2.05-3.39,4.17l-.03,9.63h-4.96s0-18.38,0-18.38h4.55s.03,2.11.03,2.11c1.55-2.03,4.03-2.83,6.52-2.16l.02,3.42c1.24-1.56,2.79-2.73,4.68-3.34Z"/>
          <path class="cls-3" d="M1621.49,20.84h-4.96s0,11.28,0,11.28c-.91-.96-1.97-1.66-3.26-1.99-4.48-1.15-8.9,1.31-10.39,5.7-1.04,3.05-.72,6.38.91,9.17,1.7,2.9,4.8,4.47,8.21,4.12,1.96-.2,3.67-.99,4.82-2.54l.07,2.13h4.61l-.02-27.87ZM1615.26,43.15c-1.94,2.05-5.37,1.79-6.96-.49-.96-1.37-1.11-3.04-.78-4.63.45-2.13,2.2-3.46,4.33-3.54,2.54-.08,4.46,1.65,4.68,4.19.14,1.59-.06,3.2-1.27,4.47Z"/>
          <path class="cls-3" d="M1600.85,37.52c-.01-3.36-1.58-6.24-4.86-7.23-2.03-.61-4.16-.57-6.19.08-.9.65-1.84,1.24-2.83,1.77-.74.15-.4,2.35-.23,2.8.2.48.41.67.93.7-.27.34-.4.87.11.94.34-.18.61-.44.91-.71,1.45-1.31,3.35-1.88,5.24-1.36.97.27,1.78,1.02,1.84,2.01l.12,1.75-4.65.03c-3.72.02-6.97,1.75-6.82,5.6.09,2.14,1.26,3.88,3.28,4.7,2.72,1.11,6.38.71,8.52-1.63l.05,1.74,4.6.02-.03-11.2ZM1592.27,45.44c-.89.04-1.73-.11-2.3-.7-.51-.53-.6-1.33-.33-2.02.22-.56.9-1,1.64-1.01l4.63-.05c.03,2.06-1.5,3.69-3.64,3.79Z"/>
          <path class="cls-3" d="M1562.68,29.76c-5.37,0-9.73,4.36-9.73,9.73s4.35,9.73,9.73,9.73,9.73-4.35,9.73-9.73-4.35-9.73-9.73-9.73ZM1566.36,42.65c-1.68,2.3-5.17,2.53-7.06.43-1.67-1.85-1.77-4.87-.27-6.85,1.77-2.33,5.48-2.29,7.26-.01,1.45,1.85,1.48,4.49.06,6.43Z"/>
          <g>
            <path class="cls-3" d="M1642.33,20.85h-4.93s0,11.3,0,11.3c-1.52-1.69-3.55-2.37-5.76-2.3-3.29.09-6.08,2.03-7.51,5.01-1.43,3.11-1.35,6.74.23,9.78,1.66,3.18,4.96,4.87,8.55,4.48,1.98-.22,3.62-1.02,4.79-2.56l.05,2.17h4.59s0-27.88,0-27.88ZM1637.13,41.57c-.73,2.01-2.65,3.18-4.85,2.92-3.36-.4-4.66-3.75-3.86-6.77.53-1.98,2.2-3.16,4.22-3.24,2.08-.08,3.9,1.05,4.53,3.06.41,1.31.43,2.73-.04,4.03Z"/>
            <path class="cls-3" d="M1660.24,37.38c0-2.05-.7-3.98-2.1-5.42-1.36-1.4-3.21-1.97-5.14-2.08-3.32-.2-6.44,1.12-8.48,3.83l2.52,3.11c.62-.62,1.21-1.15,1.94-1.62,1.32-.87,2.92-1.12,4.44-.67,1.56.46,1.95,2.01,1.84,3.73l-4.91.03c-3.4.02-6.65,1.8-6.54,5.51.07,2.2,1.29,3.94,3.27,4.78,2.71,1.15,6.54.68,8.6-1.61l.07,1.74h4.53s-.05-11.34-.05-11.34ZM1651.63,45.44c-.88.04-1.73-.1-2.28-.69-.51-.54-.61-1.32-.33-2.01.22-.57.89-1.02,1.64-1.02l4.64-.05c.01,2.06-1.52,3.69-3.66,3.78Z"/>
          </g>
        </g>
        <g>
          <path class="cls-3" d="M1448.76,48.58l7.06-7.22,11.1-11.25,13.24-13.38,7.84-7.87v13.75s-22.29,22.34-22.29,22.34c-1.24,1.24-2.27,2.43-3.6,3.62h-13.35Z"/>
          <path class="cls-3" d="M1483.83,38.83l14.41-14.55,10.04-10.18c.85-.87,1.72-1.58,2.47-2.53l2.84-2.68v13.67s-26.02,26.02-26.02,26.02h-13.35s9.62-9.75,9.62-9.75Z"/>
        </g>
      </g>
    </g>
    <g>
      <path class="cls-3" d="M799.29,9.73h5.05s.05.02.05.05v1.68s-.02.05-.05.05h-5.05s-.05-.02-.05-.05v-1.68s.02-.05.05-.05"/>
      <path class="cls-3" d="M811.07,9.73h5.05s.04.02.04.04v1.69s-.02.04-.04.04h-5.05s-.04-.02-.04-.04v-1.69s.02-.04.04-.04"/>
      <path class="cls-3" d="M826.15,9.73l1.13.02v1.7s-.02.04-.05.04h-4.38s-.04-.02-.04-.04v-1.7s.01-.03.03-.03h3.31Z"/>
      <path class="cls-3" d="M833.97,9.73h5.04s.05.02.05.05v1.68s-.02.05-.05.05h-5.04s-.04-.02-.04-.05v-1.68s.02-.05.05-.05"/>
      <path class="cls-3" d="M845.75,9.73h5.05s.04.02.04.04v1.68s-.02.04-.04.04h-5.05s-.04-.02-.04-.04v-1.68s.02-.04.04-.04"/>
      <path class="cls-3" d="M802.25,12.23h5.04s.05.02.05.05v1.67s-.02.05-.05.05h-5.04s-.05-.02-.05-.05v-1.67s.02-.05.05-.05"/>
      <path class="cls-3" d="M814.03,12.23h5.05s.04.02.04.04v1.68s-.02.04-.04.04h-5.05s-.04-.02-.04-.04v-1.68s.02-.04.04-.04"/>
      <path class="cls-3" d="M836.9,12.23h5.04s.05.02.05.05v1.67s-.02.05-.05.05h-5.04s-.05-.02-.05-.05v-1.67s.02-.05.05-.05"/>
      <path class="cls-3" d="M848.69,12.22h2.12s.05.02.05.05v1.67s-.02.05-.05.05h-2.12s-.05-.02-.05-.05v-1.67s.02-.05.05-.05"/>
      <path class="cls-3" d="M825.44,12.23c.12.02.21.03.27.03.72-.01,1.45-.03,2.18-.03.6,0,1.53.05,2.32,0v1.74s0,.02-.02.02h-2.37c-.79-.04-1.58-.04-2.37,0v-1.76Z"/>
      <path class="cls-3" d="M805.17,14.72h5.06s.03.02.03.03v1.7s-.02.03-.03.03h-5.06s-.03-.02-.03-.03v-1.7s.02-.03.03-.03"/>
      <path class="cls-3" d="M817.86,16.22c-.28.13-.58.33-.91.25-.02,0-.04-.02-.04-.05v-1.67s.02-.04.04-.04c1.95,0,3.61,0,4.98,0,.1,0,.14.05.12.16-.01.05-.05.08-.1.09-1.44.25-2.8.67-4.1,1.25"/>
      <path class="cls-3" d="M833.96,14.72h5.06s.03.02.03.03v1.7s-.02.03-.03.03h-5.06s-.03-.02-.03-.03v-1.7s.02-.03.03-.03"/>
      <path class="cls-3" d="M845.76,14.72h5.04s.05.02.05.05v1.67s-.02.05-.05.05h-5.04s-.05-.02-.05-.05v-1.67s.02-.05.05-.05"/>
      <path class="cls-3" d="M823.17,17.81c.03.48.12.95.25,1.42l.25,1.32s0,.04-.03.04c-.1.02-.2.01-.3.03-.45.1-.9.19-1.35.28h0s-.05-.01-.06-.04l-.91-4.95s0-.06.05-.07l1.6-.29s.01,0,.02,0c.04,0,.07.03.08.07l.41,2.19Z"/>
      <path class="cls-3" d="M831.57,18.27c-.04.08-.06.15-.06.22l-1.26,3.15s-.03.04-.06.04c0,0-.02,0-.02,0l-1.56-.62s-.01-.01-.01-.02c0,0,0,0,0,0l1.87-4.69s.03-.04.06-.04c0,0,.02,0,.02,0l1.54.62s.03.03.03.05c0,0,0,.01,0,.02l-.54,1.29Z"/>
      <path class="cls-3" d="M834.26,17.27c-.06-.04-.06-.06.02-.06h1.79s.03.01.03.03v1.27s0,0,0,0c0,.01-.02.02-.03.02,0,0,0,0,0,0-.5-.4-1.1-.82-1.8-1.26"/>
      <path class="cls-3" d="M842.78,17.21h5.06s.04.02.04.04v1.69s-.02.04-.04.04h-5.06s-.04-.02-.04-.04v-1.69s.02-.04.04-.04"/>
      <path class="cls-3" d="M799.29,17.21h2.12s.05.02.05.05v1.67s-.02.05-.05.05h-2.12s-.05-.02-.05-.05v-1.67s.02-.05.05-.05"/>
      <path class="cls-3" d="M808.14,17.21h5.05s.04.02.04.04v1.68s-.02.04-.04.04h-5.05s-.04-.02-.04-.04v-1.68s.02-.04.04-.04"/>
      <path class="cls-3" d="M832.03,19.52c.1-.1.16-.19.17-.29l1.07-1.67s.03-.02.04-.02c0,0,.02,0,.03,0l1.43.91s.01.02.01.03c0,0,0,.01,0,.02l-2.72,4.28s-.02.02-.03.02c0,0-.01,0-.02,0l-1.43-.91s-.02-.02-.02-.03c0,0,0-.01,0-.02l1.46-2.31Z"/>
      <path class="cls-3" d="M835.89,19.29l1.24,1.16s.01.03,0,.05l-3.45,3.71s-.03.01-.05,0l-1.24-1.16s-.01-.03,0-.05l3.45-3.71s.03-.01.05,0"/>
      <path class="cls-3" d="M799.26,19.71h5.1s.02,0,.02.02v1.72s0,.02-.02.02h-5.1s-.02,0-.02-.02v-1.72s0-.02.02-.02"/>
      <path class="cls-3" d="M811.03,19.73s.01-.03.03-.03h1.58s.05.02.02.05c-.54.53-1.04,1.08-1.48,1.64-.09.11-.14.1-.14-.05v-1.62Z"/>
      <path class="cls-3" d="M839.85,19.71h5.08s.02.01.02.02v1.72s-.01.02-.02.02h-5.08s-.02-.01-.02-.02v-1.72s.01-.02.02-.02"/>
      <path class="cls-3" d="M812.13,21.39l4.02,3.12s.01.02,0,.03l-1.06,1.36s-.02.01-.03,0l-4.02-3.12s-.01-.02,0-.03l1.06-1.36s.02-.01.03,0"/>
      <path class="cls-3" d="M799.28,22.2h2.13s.04.02.04.04v1.69s-.02.04-.04.04h-2.13s-.04-.02-.04-.04v-1.69s.02-.04.04-.04"/>
      <path class="cls-3" d="M810.52,22.24l-1.07,1.72s-.01.01-.02.01h-1.3s-.02-.02-.02-.03v-1.71s.01-.02.02-.02h2.37s.02,0,.02.02c0,0,0,0,0,.01Z"/>
      <path class="cls-3" d="M846.35,22.2h.63s.86,0,.86,0h0s.04.02.04.04v1.67s-.02.06-.06.06h-5.03s-.05-.02-.05-.05v-1.66s.02-.05.05-.05h3.56Z"/>
      <path class="cls-3" d="M835.41,26.08s.1-.03.16-.08l1.02-.55c.1-.02.18-.05.23-.1l.9-.48c.12-.03.24-.08.34-.16l1.61-.85s.06,0,.07.02l.77,1.48s0,.01,0,.02c0,.02,0,.03-.02.04l-4.48,2.33s-.04,0-.06-.02l-.78-1.49s0-.03.01-.04l.22-.11Z"/>
      <path class="cls-3" d="M841.07,24.7h3.86s.03.01.03.03v1.71s-.01.03-.02.03h-3.15s-.02,0-.02-.02l-.72-1.71s0,0,0-.01c0-.01.01-.03.03-.03h0Z"/>
      <path class="cls-3" d="M799.28,24.7h5.05s.04.02.04.04v1.68s-.02.04-.04.04h-5.05s-.04-.02-.04-.04v-1.68s.02-.04.04-.04"/>
      <path class="cls-3" d="M809.69,26.72l.97.35.89.27.35.11c.44.2.88.35,1.34.44l.67.24v.02s.02.03.02.05l-.2.75-.27.79s-.04.06-.09.04l-2.93-.97c-.07-.05-.15-.07-.25-.07l-1.59-.52s-.03-.02-.03-.04c0,0,0,0,0-.01l.48-1.47s.04-.08.06-.09c.02-.01.05-.01.1,0,.16.05.31.08.48.11"/>
      <path class="cls-3" d="M799.28,27.19h2.13s.04.01.04.04v1.69s-.02.04-.04.04h-2.13s-.04-.01-.04-.04v-1.69s.02-.04.04-.04"/>
      <path class="cls-3" d="M842.79,27.19h5.06s.04.02.04.04v1.69s-.02.04-.04.04h-5.06s-.04-.02-.04-.04v-1.69s.02-.04.04-.04"/>
      <path class="cls-3" d="M841.78,29.6l.21,1.66s0,.03-.03.03l-4.98.59c-.06,0-.09-.02-.1-.08l-.19-1.62s.01-.06.05-.06l4.6-.54c.18-.02.33-.02.45.02"/>
      <path class="cls-3" d="M799.29,29.69h5.04s.05.02.05.05v1.68s-.02.05-.05.05h-5.04s-.05-.02-.05-.05v-1.68s.02-.05.05-.05"/>
      <path class="cls-3" d="M842.61,29.68h2.31s.03.01.03.03v1.72s-.01.03-.03.03h-2.13s0,0,0,0c-.01,0-.02-.01-.03-.02l-.18-1.72h0s.01-.03.03-.03Z"/>
      <path class="cls-3" d="M799.28,32.18h2.13s.04.02.04.04v1.69s-.02.04-.04.04h-2.13s-.04-.02-.04-.04v-1.69s.02-.04.04-.04"/>
      <path class="cls-3" d="M808.13,32.18h5.06s.04.02.04.04v1.69s-.02.04-.04.04h-5.06s-.04-.02-.04-.04v-1.69s.02-.04.04-.04"/>
      <path class="cls-3" d="M842.78,32.18h5.07s.03.02.03.03v1.7s-.02.03-.03.03h-5.07s-.03-.02-.03-.03v-1.7s.02-.03.03-.03"/>
      <path class="cls-3" d="M811.07,34.68h2.12s.04.02.04.04v1.69s-.02.04-.04.04h-2.12s-.04-.02-.04-.04v-1.69s.02-.04.04-.04"/>
      <path class="cls-3" d="M839.86,34.68h5.05s.04.02.04.04v1.68s-.02.04-.04.04h-5.05s-.04-.02-.04-.04v-1.68s.02-.04.04-.04"/>
      <path class="cls-3" d="M799.28,34.68h5.06s.04.02.04.04v1.69s-.02.04-.04.04h-5.06s-.04-.02-.04-.04v-1.69s.02-.04.04-.04"/>
      <path class="cls-3" d="M842.79,37.17h5.05s.05.02.05.05v1.68s-.02.05-.05.05h-5.05s-.05-.02-.05-.05v-1.68s.02-.05.05-.05"/>
      <path class="cls-3" d="M799.28,37.18h2.12s.04.02.04.04v1.68s-.02.04-.04.04h-2.12s-.04-.02-.04-.04v-1.68s.02-.04.04-.04"/>
      <path class="cls-3" d="M808.14,37.18h5.05s.04.02.04.04v1.68s-.02.04-.04.04h-5.05s-.04-.02-.04-.04v-1.68s.02-.04.04-.04"/>
      <path class="cls-3" d="M799.28,39.67h5.07s.03.02.03.03v1.7s-.02.03-.03.03h-5.07s-.03-.02-.03-.03v-1.7s.02-.03.03-.03"/>
      <path class="cls-3" d="M811.07,39.67h2.13s.04.02.04.04v1.69s-.02.04-.04.04h-2.13s-.04-.02-.04-.04v-1.69s.02-.04.04-.04"/>
      <path class="cls-3" d="M839.86,39.67h5.07s.03.01.03.03v1.7s-.01.03-.03.03h-5.07s-.03-.01-.03-.03v-1.7s.01-.03.03-.03"/>
      <path class="cls-3" d="M799.29,42.16h2.12s.04.02.04.04v1.68s-.02.04-.04.04h-2.12s-.04-.02-.04-.04v-1.68s.02-.04.04-.04"/>
      <path class="cls-3" d="M808.13,42.16h5.06s.04.02.04.04v1.69s-.02.04-.04.04h-5.06s-.04-.02-.04-.04v-1.69s.02-.04.04-.04"/>
      <path class="cls-3" d="M842.78,42.16h5.07s.04.02.04.04v1.7s-.02.04-.04.04h-5.07s-.04-.02-.04-.04v-1.7s.02-.04.04-.04"/>
      <path class="cls-3" d="M799.28,44.66h5.05s.04.02.04.04v1.68s-.02.04-.04.04h-5.05s-.04-.02-.04-.04v-1.68s.02-.04.04-.04"/>
      <path class="cls-3" d="M811.07,44.66h2.12s.04.02.04.04v1.69s-.02.04-.04.04h-2.12s-.04-.02-.04-.04v-1.69s.02-.04.04-.04"/>
      <path class="cls-3" d="M839.86,44.66h5.05s.04.02.04.04v1.69s-.02.04-.04.04h-5.05s-.04-.02-.04-.04v-1.69s.02-.04.04-.04"/>
      <path class="cls-3" d="M808.14,47.16h5.04s.05.02.05.05v1.67s-.02.05-.05.05h-5.04s-.05-.02-.05-.05v-1.67s.02-.05.05-.05"/>
      <path class="cls-3" d="M842.79,47.16h5.04s.05.02.05.05v1.67s-.02.05-.05.05h-5.04s-.05-.02-.05-.05v-1.67s.02-.05.05-.05"/>
      <path class="cls-3" d="M799.28,47.16h2.12s.04.02.04.04v1.68s-.02.04-.04.04h-2.12s-.04-.02-.04-.04v-1.68s.02-.04.04-.04"/>
      <path class="cls-3" d="M799.29,49.65h5.04s.05.02.05.05v1.67s-.02.05-.05.05h-5.04s-.05-.02-.05-.05v-1.67s.02-.05.05-.05"/>
      <path class="cls-3" d="M811.07,49.65h2.12s.04.02.04.04v1.68s-.02.04-.04.04h-2.12s-.04-.02-.04-.04v-1.68s.02-.04.04-.04"/>
      <path class="cls-3" d="M839.86,49.65h5.05s.04.02.04.04v1.68s-.02.04-.04.04h-5.05s-.04-.02-.04-.04v-1.68s.02-.04.04-.04"/>
      <path class="cls-3" d="M845.76,49.65h5.04s.05.02.05.05v1.67s-.02.05-.05.05h-5.04s-.05-.02-.05-.05v-1.67s.02-.05.05-.05"/>
      <path class="cls-3" d="M836.89,49.65h2.13s.04.01.04.04v1.68s-.02.04-.04.04h-2.13s-.04-.01-.04-.04v-1.68s.02-.04.04-.04"/>
      <path class="cls-3" d="M805.18,49.65h5.05s.04.02.04.04v1.68s-.02.04-.04.04h-5.05s-.04-.02-.04-.04v-1.68s.02-.04.04-.04"/>
      <path class="cls-3" d="M848.7,47.16h2.1s.05.02.05.05v1.66s-.02.05-.05.05h-2.1s-.05-.02-.05-.05v-1.66s.02-.05.05-.05"/>
      <path class="cls-3" d="M836.92,47.16h5.01s.06.03.06.06v1.65s-.03.06-.06.06h-5.01s-.06-.03-.06-.06v-1.65s.03-.06.06-.06"/>
      <path class="cls-3" d="M802.27,47.16h5.01s.06.03.06.06v1.65s-.03.06-.06.06h-5.01s-.06-.03-.06-.06v-1.65s.03-.06.06-.06"/>
      <path class="cls-3" d="M845.76,44.66h5.04s.05.02.05.05v1.67s-.02.05-.05.05h-5.04s-.05-.02-.05-.05v-1.67s.02-.05.05-.05"/>
      <path class="cls-3" d="M836.89,44.66h2.12s.04.01.04.04v1.69s-.02.04-.04.04h-2.12s-.04-.01-.04-.04v-1.69s.02-.04.04-.04"/>
      <path class="cls-3" d="M805.18,44.65h5.04s.04.02.04.04v1.68s-.02.04-.04.04h-5.04s-.04-.02-.04-.04v-1.68s.02-.04.04-.04"/>
      <path class="cls-3" d="M848.68,42.16h2.13s.04.01.04.04v1.69s-.01.04-.04.04h-2.13s-.04-.01-.04-.04v-1.69s.01-.04.04-.04"/>
      <path class="cls-3" d="M836.89,42.16h5.06s.04.02.04.04v1.69s-.02.04-.04.04h-5.06s-.04-.02-.04-.04v-1.69s.02-.04.04-.04"/>
      <path class="cls-3" d="M802.26,42.16h5.03s.05.02.05.05v1.66s-.02.05-.05.05h-5.03s-.05-.02-.05-.05v-1.66s.02-.05.05-.05"/>
      <path class="cls-3" d="M845.74,39.67h5.07s.03.01.03.03v1.7s-.01.03-.03.03h-5.07s-.03-.01-.03-.03v-1.7s.01-.03.03-.03"/>
      <path class="cls-3" d="M836.88,39.67h2.14s.03.01.03.03v1.7s-.01.03-.03.03h-2.14s-.03-.01-.03-.03v-1.7s.01-.03.03-.03"/>
      <path class="cls-3" d="M805.18,39.67h5.04s.05.02.05.04v1.68s-.02.05-.05.05h-5.04s-.05-.02-.05-.05v-1.68s.02-.04.05-.04"/>
      <path class="cls-3" d="M836.9,37.18h5.05s.04.02.04.04v1.68s-.02.04-.04.04h-5.05s-.04-.02-.04-.04v-1.68s.02-.04.04-.04"/>
      <path class="cls-3" d="M802.26,37.18h5.04s.05.02.05.05v1.67s-.02.05-.05.05h-5.04s-.05-.02-.05-.05v-1.67s.02-.05.05-.05"/>
      <path class="cls-3" d="M848.69,37.17h2.12s.04.02.04.04v1.68s-.02.04-.04.04h-2.12s-.04-.02-.04-.04v-1.68s.02-.04.04-.04"/>
      <path class="cls-3" d="M836.91,34.68h2.1s.05.02.05.05v1.66s-.02.05-.05.05h-2.1s-.05-.02-.05-.05v-1.66s.02-.05.05-.05"/>
      <path class="cls-3" d="M845.76,34.68h5.04s.05.02.05.05v1.67s-.02.05-.05.05h-5.04s-.05-.02-.05-.05v-1.67s.02-.05.05-.05"/>
      <path class="cls-3" d="M805.19,34.68h5.03s.05.02.05.05v1.67s-.02.05-.05.05h-5.03s-.05-.02-.05-.05v-1.67s.02-.05.05-.05"/>
      <path class="cls-3" d="M848.69,32.19h2.11s.05.02.05.04v1.67s-.02.05-.04.05h-2.11s-.05-.02-.05-.04v-1.67s.02-.05.04-.05"/>
      <path class="cls-3" d="M836.9,32.18h5.04s.05.02.05.05v1.68s-.02.05-.05.05h-5.04s-.05-.02-.05-.05v-1.68s.02-.05.05-.05"/>
      <path class="cls-3" d="M802.26,32.18h5.04s.05.02.05.05v1.67s-.02.05-.05.05h-5.04s-.05-.02-.05-.05v-1.67s.02-.05.05-.05"/>
      <path class="cls-3" d="M845.75,29.69h5.06s.04.02.04.04v1.69s-.02.04-.04.04h-5.06s-.04-.02-.04-.04v-1.69s.02-.04.04-.04"/>
      <path class="cls-3" d="M807.29,31.46h-2.13s-.03-.01-.03-.03v-1.71s.01-.03.03-.03h2.31s.03.01.03.03c0,0,0,0,0,0l-.18,1.71s-.01.03-.03.03Z"/>
      <path class="cls-3" d="M841.78,29.6c-.12-.03-.27-.04-.45-.02l.4-.05s.04,0,.05.03c0,.02,0,.03,0,.04"/>
      <path class="cls-3" d="M808.35,29.53l5.03.6s.03.02.03.04l-.2,1.69s-.02.03-.04.03l-5.03-.6s-.03-.02-.03-.04l.2-1.69s.02-.03.04-.03"/>
      <path class="cls-3" d="M810.19,28.74c.1,0,.19.02.25.07-.11.02-.2,0-.25-.07"/>
      <path class="cls-3" d="M813.91,28.12s.03,0,.04,0c0,0,0,0,0,0,.03,0,.04.03.04.05,0,0,0,0,0,0-.09.28-.18.53-.27.76l.2-.75s0-.03,0-.05v-.02Z"/>
      <path class="cls-3" d="M813.24,27.88c-.45-.09-.9-.24-1.34-.44.46.1.91.25,1.34.44"/>
      <path class="cls-3" d="M848.69,27.19h2.11s.05.02.05.05v1.68s-.02.05-.05.05h-2.11s-.05-.02-.05-.05v-1.68s.02-.05.05-.05"/>
      <path class="cls-3" d="M802.27,27.19h5.02s.06.03.06.06v1.66s-.03.06-.06.06h-5.02s-.06-.03-.06-.06v-1.66s.03-.06.06-.06"/>
      <path class="cls-3" d="M810.67,27.06c.31.05.6.14.89.27l-.89-.27Z"/>
      <path class="cls-3" d="M836.14,28.13l4.82-1.59s0,0,0,0c.01,0,.02,0,.02.02l.53,1.62s0,0,0,0c0,.01,0,.02-.02.02l-4.82,1.58s0,0,0,0c-.01,0-.02,0-.02-.02l-.53-1.62s0,0,0,0c0-.01,0-.02.02-.02Z"/>
      <path class="cls-3" d="M809.69,26.72c-.16-.03-.32-.06-.48-.11-.04-.01-.08-.01-.1,0-.03.02-.05.05-.06.09,0-.05,0-.1.03-.14.02-.02.04-.03.06-.02l.55.18Z"/>
      <path class="cls-3" d="M835.57,26c-.06.04-.11.07-.16.08,0-.05.05-.08.16-.08"/>
      <path class="cls-3" d="M836.83,25.34c-.06.05-.13.09-.23.1.08-.07.16-.11.23-.1"/>
      <path class="cls-3" d="M845.77,24.7h5.03s.05.02.05.05v1.66s-.02.05-.05.05h-5.03s-.05-.02-.05-.05v-1.66s.02-.05.05-.05"/>
      <path class="cls-3" d="M838.06,24.7c-.1.08-.22.13-.34.16.11-.11.23-.16.34-.16"/>
      <path class="cls-3" d="M808.31,26.46h-3.14s-.03-.01-.03-.02v-1.71s0-.03.02-.03h3.86s.03.01.03.03c0,0,0,0,0,.01l-.71,1.71s-.01.02-.03.02h0Z"/>
      <path class="cls-3" d="M810.4,23.84l4.51,2.34s.01.01.01.02c0,0,0,0,0,.01l-.79,1.51s-.01.01-.02.01c0,0,0,0-.01,0l-4.51-2.34s-.01-.01-.01-.02c0,0,0,0,0-.01l.79-1.52s.01-.01.02-.01c0,0,0,0,.01,0Z"/>
      <path class="cls-3" d="M848.7,22.2h2.1s.05.02.05.05v1.66s-.02.05-.05.05h-2.1s-.05-.02-.05-.05v-1.66s.02-.05.05-.05"/>
      <path class="cls-3" d="M846.35,22.2h.63s-.63,0-.63,0Z"/>
      <path class="cls-3" d="M841.99,22.23v1.71s-.01.03-.03.03h-1.3s-.02,0-.02,0l-1.07-1.72s0,0,0-.01c0-.01.01-.02.02-.02h2.37s.03.01.03.03h0Z"/>
      <path class="cls-3" d="M802.26,22.2h5.03s.05.02.05.05v1.66s-.02.05-.05.05h-5.03s-.05-.02-.05-.05v-1.66s.02-.05.05-.05"/>
      <path class="cls-3" d="M833.95,24.51l4.01-3.11s.01,0,.02,0c0,0,.02,0,.02.01l1.04,1.34s0,.01,0,.02c0,0,0,.02-.01.02l-4.01,3.09s-.01,0-.02,0c0,0-.02,0-.02-.01l-1.04-1.33s0-.01,0-.02c0,0,0-.02.01-.02Z"/>
      <path class="cls-3" d="M850.82,21.47h-5.07s-.02-.01-.02-.03l.02-1.71s.01-.03.02-.03h5.05s.02.01.02.03v1.71s-.01.03-.02.03Z"/>
      <path class="cls-3" d="M838.64,21.02s-.07-.06-.1-.1c-.36-.42-.73-.81-1.1-1.18-.03-.03-.02-.05.02-.05h1.56s.05.02.05.05v1.6c0,.15-.04.16-.13.04-.09-.13-.19-.25-.29-.38"/>
      <path class="cls-3" d="M805.17,19.71h5.07s.03.01.03.03v1.7s-.01.03-.03.03h-5.07s-.03-.01-.03-.03v-1.7s.01-.03.03-.03"/>
      <path class="cls-3" d="M816.4,24.18l-3.43-3.67s-.01-.02-.01-.03c0-.01,0-.03.02-.03l1.24-1.14s.02-.01.03-.01c.01,0,.03,0,.03.02l3.4,3.69s.01.02.01.03c0,.01,0,.03-.02.03l-1.21,1.12s-.02.01-.03.01c-.01,0-.03,0-.03-.01Z"/>
      <path class="cls-3" d="M832.19,19.23c0,.1-.06.2-.17.29l.17-.29Z"/>
      <path class="cls-3" d="M831.57,18.27c.02.07,0,.15-.07.22,0-.07.02-.15.07-.22"/>
      <path class="cls-3" d="M823.17,17.81l.25,1.42c-.14-.47-.22-.94-.25-1.42"/>
      <path class="cls-3" d="M815.33,18.46l1.44-.92s.02,0,.03,0l2.72,4.29s0,.02,0,.03l-1.44.92s-.02,0-.03,0l-2.72-4.29s0-.02,0-.03"/>
      <path class="cls-3" d="M848.68,17.22h2.13s.04.01.04.03v1.69s-.01.04-.03.04h-2.13s-.04-.01-.04-.03v-1.69s.01-.04.03-.04"/>
      <path class="cls-3" d="M836.9,17.22h5.05s.05.02.05.05v1.67s-.02.05-.05.05h-5.05s-.05-.02-.05-.05v-1.67s.02-.05.05-.05"/>
      <path class="cls-3" d="M802.26,17.22h5.03s.05.02.05.05v1.66s-.02.05-.05.05h-5.03s-.05-.02-.05-.05v-1.66s.02-.05.05-.05"/>
      <path class="cls-3" d="M815.82,17.28c-.62.38-1.22.81-1.79,1.25,0,0-.01,0-.02,0-.02,0-.03-.01-.03-.03v-1.25s.02-.04.04-.04h1.77c.09,0,.1.02.02.07"/>
      <path class="cls-3" d="M819.85,21.61l-1.85-4.58s0-.02,0-.04c0-.04.03-.08.06-.09l1.46-.58s.02,0,.04,0c.04,0,.08.02.09.06l1.82,4.57s0,.02,0,.04c0,.04-.02.08-.06.09l-1.42.59s-.03,0-.04,0c-.04,0-.08-.02-.09-.06Z"/>
      <path class="cls-3" d="M829.07,15.9l-.92,4.97s-.02.04-.04.04c0,0,0,0,0,0l-1.64-.34s-.04-.02-.04-.04c0,0,0,0,0,0l.91-4.93s.02-.04.04-.04c0,0,0,0,0,0l1.64.3s.04.02.04.04c0,0,0,0,0,0Z"/>
      <path class="cls-3" d="M824.16,20.49v-5.05s.02-.05.05-.05h1.68s.05.02.05.05v5.02s-.03.05-.05.05l-1.67.02h0s-.05-.02-.05-.05Z"/>
      <path class="cls-3" d="M839.87,14.72h5.03s.05.02.05.05v1.67s-.02.05-.05.05h-5.03s-.05-.02-.05-.05v-1.67s.02-.05.05-.05"/>
      <path class="cls-3" d="M832.35,16.26c-1.36-.61-2.77-1.05-4.25-1.31-.05,0-.08-.04-.08-.09v-.06s.04-.09.09-.09h5.01s.05.02.05.05v1.67s-.02.05-.05.05c-.32.02-.5-.1-.78-.22"/>
      <path class="cls-3" d="M811.07,14.72h5.04s.04.02.04.04v1.68s-.02.04-.04.04h-5.04s-.04-.02-.04-.04v-1.68s.02-.04.04-.04"/>
      <path class="cls-3" d="M799.29,14.72h5.03s.05.02.05.05v1.67s-.02.05-.05.05h-5.03s-.05-.02-.05-.05v-1.67s.02-.05.05-.05"/>
      <path class="cls-3" d="M827.81,13.99h-2.37c.79-.04,1.59-.04,2.37,0"/>
      <path class="cls-3" d="M799.29,12.23h2.12s.05.02.05.05v1.67s-.02.05-.05.05h-2.12s-.05-.02-.05-.05v-1.67s.02-.05.05-.05"/>
      <path class="cls-3" d="M842.79,12.22h5.05s.04.02.04.04v1.68s-.02.04-.04.04h-5.05s-.04-.02-.04-.04v-1.68s.02-.04.04-.04"/>
      <path class="cls-3" d="M831.07,12.23h4.95s.08.03.08.08v1.6s-.04.08-.08.08h-4.98s-.08-.04-.08-.08h0s.03-1.6.03-1.6c0-.04.04-.08.08-.08Z"/>
      <path class="cls-3" d="M824.63,13.99h-4.72s-.03,0-.03-.02v-1.71s.01-.03.03-.03h4.72s.03.02.03.03v1.7s-.01.03-.03.03Z"/>
      <path class="cls-3" d="M808.15,12.22h5.02s.06.02.06.06v1.66s-.02.06-.05.06h-5.03s-.06-.02-.06-.06v-1.66s.02-.06.06-.06"/>
      <path class="cls-3" d="M830.2,12.23c-.79.04-1.72-.01-2.32,0-.72,0-1.45.02-2.18.03-.06,0-.15,0-.27-.03.07-.01.15-.04.23-.04,1.37.03,2.69.03,3.95.02.1,0,.21,0,.32.02.07,0,.16,0,.26,0"/>
      <path class="cls-3" d="M839.86,9.73h5.05s.04.02.04.04v1.69s-.02.04-.04.04h-5.05s-.04-.02-.04-.04v-1.69s.02-.04.04-.04"/>
      <path class="cls-3" d="M826.15,9.73h1.1s.01,0,.02,0v.02s-1.12-.02-1.12-.02Z"/>
      <path class="cls-3" d="M816.95,9.73h5.08s.03.01.03.03v1.71s-.01.03-.03.03h-5.08s-.03-.01-.03-.03v-1.71s.01-.03.03-.03"/>
      <path class="cls-3" d="M805.18,9.73h5.04s.05.02.05.05v1.68s-.02.05-.05.05h-5.04s-.05-.02-.05-.05v-1.68s.02-.05.05-.05"/>
      <path class="cls-3" d="M828.06,9.73h5.07s.04.02.04.04v1.68s-.02.04-.05.04h-5.06s-.04-.01-.04-.04v-1.69s.01-.04.03-.04Z"/>
      <path class="cls-3" d="M866.19,19.62v20.39s0,.02-.02.02h-3.87s-.02,0-.02-.02V13.56s0-.02.02-.02h3.87s0,0,0,0c0,0,.01,0,.02,0l22.59,26.45s0,0,0,.01c0,.01,0,.02-.02.02h-5.08s-.01,0-.02,0l-17.44-20.42s0,0-.02,0c-.01,0-.02,0-.02.02h0Z"/>
      <path class="cls-3" d="M907.52,17.54c-1.23.35-2.02,1.34-2.06,2.63,0,.02-.01.03-.04.03h-3.83s-.04-.01-.04-.04c.04-3.78,3.04-6.62,6.77-6.63,4.21,0,8.54,0,12.97,0,.88,0,1.69.14,2.41.41,2.63.99,4.32,3.4,4.34,6.22,0,.02-.01.03-.03.03h-3.8s-.04-.01-.04-.04c-.03-1.28-.86-2.32-2.09-2.63-.22-.06-.5-.08-.84-.08-4.18,0-8.51,0-13,0-.27,0-.51.03-.72.09"/>
      <path class="cls-3" d="M931.83,20.11c.02-.96.31-1.96.73-2.8,1.12-2.23,3.24-3.77,5.79-3.77,4.44,0,8.85,0,13.25,0,1,0,1.92.19,2.77.58,2.19,1,3.71,3.07,3.94,5.47.03.29.04.69.04,1.22,0,4.22,0,8.38,0,12.46,0,.94-.17,1.81-.5,2.61-1.06,2.52-3.46,4.15-6.2,4.15-4.44,0-8.83,0-13.18,0-.43,0-.8-.02-1.1-.07-2.82-.46-5.09-2.92-5.49-5.73-.04-.3-.06-.68-.06-1.14,0-2.75,0-6.43,0-9.05,0-.02.01-.04.04-.04h3.81s.06.02.06.06c0,2.87,0,6.66,0,9.35,0,.23.03.45.1.67.36,1.18,1.35,2.04,2.61,2.04,4.32,0,8.71,0,13.18,0,.61,0,1.15-.18,1.64-.54.79-.58,1.18-1.37,1.18-2.35,0-4.35,0-8.67,0-12.95,0-1.55-1.26-2.83-2.82-2.83-4.54,0-8.97,0-13.29,0-1.46,0-2.47,1.38-2.6,2.72,0,.02-.01.03-.03.03h-3.85s-.03,0-.03-.03c0,0,0-.02,0-.03,0-.01,0-.02,0-.04"/>
      <path class="cls-3" d="M856.14,45.74s.02-.09.02-.14c0-12.33,0-21.54,0-33.87-.01-.02-.01-.04,0-.07h.82s.02,0,.02.01v34.05s-.01.03-.03.03h-.78s-.01,0-.01,0c0,0,0,0,0-.01"/>
      <path class="cls-3" d="M907.3,39.97c-2.99-.42-5.32-2.77-5.69-5.76-.04-.34-.06-.74-.06-1.21,0-2.61,0-6.26,0-8.97,0-.02.01-.03.03-.03h3.84s.03,0,.03.03c0,2.57,0,6.16,0,8.75,0,.56.02.94.07,1.15.29,1.29,1.37,2.23,2.71,2.23,4.38,0,8.76,0,13.14,0,.5,0,1-.11,1.42-.36.87-.52,1.34-1.31,1.39-2.36,0-.02.01-.03.04-.03h3.8s.04.02.04.04c-.05,1.95-.77,3.56-2.14,4.85-1.22,1.14-2.85,1.74-4.52,1.74-4.58,0-8.88,0-12.91,0-.49,0-.88-.02-1.17-.06"/>
      <path class="cls-3" d="M871.95,30.86c0-1.08-.87-1.95-1.95-1.95s-1.95.87-1.95,1.95.87,1.95,1.95,1.95,1.95-.87,1.95-1.95"/>
      <path class="cls-3" d="M863.92,46.71c.02-.05.06-.06.1-.03l.4.23s.06.06.03.11c-.45.89-1.72.89-2.09-.07-.07-.17-.09-.41-.08-.74,0-.29.01-.53,0-.81-.01-.38.02-.65.09-.81.18-.43.6-.72,1.07-.71.46.02.8.24,1.03.67,0,.01,0,.02,0,.03,0,.03-.01.05-.04.06l-.43.25s-.02,0-.02,0c-.02,0-.04-.01-.05-.04-.1-.35-.48-.47-.77-.3-.17.1-.26.25-.26.46,0,.41,0,.85,0,1.42,0,.16.03.29.09.38.26.39.76.3.94-.11"/>
      <path class="cls-3" d="M868.13,44.96c0-.28-.22-.5-.5-.5h-.04c-.28,0-.5.22-.5.5v1.61c0,.28.22.5.5.5h.04c.28,0,.5-.22.5-.5v-1.61ZM868.73,46.61c0,.59-.47,1.06-1.06,1.06h-.13c-.59,0-1.06-.47-1.06-1.06v-1.7c0-.59.47-1.06,1.06-1.06h.13c.59,0,1.06.47,1.06,1.06v1.7Z"/>
      <path class="cls-3" d="M876.76,44.87c-.12-.29-.34-.5-.67-.39-.14.05-.23.13-.27.25-.09.26.1.5.33.6.19.09.37.17.54.25.47.23.81.67.7,1.22-.09.51-.56.87-1.07.88-.5,0-.87-.2-1.12-.64-.03-.06-.02-.1.04-.13l.41-.24s.02,0,.03,0c.02,0,.04.01.05.03.14.37.61.51.9.23.31-.29.04-.65-.27-.8-.45-.2-.88-.35-1.11-.83-.31-.65.15-1.38.85-1.45.54-.06.94.16,1.21.67,0,0,0,.02,0,.03,0,.02-.01.04-.03.05l-.47.29s-.05.01-.06-.02"/>
      <path class="cls-3" d="M897.78,44.96h0c0-.28-.22-.5-.5-.5h-.04c-.28,0-.5.22-.5.5v1.61s0,0,0,0c0,.28.22.5.5.5h.04c.28,0,.5-.22.5-.5v-1.61ZM898.38,46.61c0,.58-.48,1.06-1.06,1.06h-.13c-.58,0-1.06-.48-1.06-1.06h0s0-1.7,0-1.7c0-.58.48-1.06,1.06-1.06h.13c.58,0,1.06.48,1.06,1.06h0s0,1.7,0,1.7Z"/>
      <path class="cls-3" d="M928.84,46.03h-.35s-.06-.02-.06-.06v-.49s.02-.06.06-.06h.95s.06.03.06.06c0,.33,0,.67,0,1.03,0,1-1.09,1.54-1.87.91-.31-.25-.41-.61-.41-1.03,0-.38,0-.77,0-1.17,0-.29.02-.52.1-.69.4-.92,1.67-.9,2.08,0,.02.03,0,.06-.02.08l-.43.25s-.02,0-.03,0c-.02,0-.05-.02-.05-.04-.1-.29-.39-.43-.67-.34-.25.08-.36.29-.36.55,0,.53,0,1.03,0,1.51,0,.63.84.75,1.03.15.02-.07.03-.28.01-.62,0-.02-.01-.04-.04-.04"/>
      <path class="cls-3" d="M872.5,46.09v-2.11s.02-.07.07-.07h.47s.07.03.07.07v3.57s-.02.04-.05.04h-.45s-.05-.01-.06-.03l-1.07-2.27s-.03-.04-.03,0v2.25s-.02.05-.05.05h-.53s-.04-.02-.04-.04v-3.59s.03-.06.06-.06h.47s.08.02.09.06l1.01,2.12s.03.04.03,0"/>
      <path class="cls-3" d="M880.66,44.58v2.98s-.02.05-.05.05h-.51s-.05-.02-.05-.05v-2.99s-.02-.05-.05-.05h-.73s-.05-.02-.05-.05v-.52s0,0,0,0c0-.03.02-.05.05-.05h2.17s.05.02.05.04v.52s-.02.05-.05.05h-.74s-.05.03-.05.05Z"/>
      <path class="cls-3" d="M884.08,44.57v.81s.02.04.04.04h.54c.26,0,.47-.19.47-.44v-.02h0c0-.24-.21-.44-.47-.44h-.54s0,0,0,0c-.02,0-.04.02-.04.04h0ZM884.11,46.03h0s-.03.01-.03.03v1.51s-.02.05-.05.05h-.52s0,0,0,0c-.03,0-.05-.02-.05-.05h0s0-3.58,0-3.58c0-.05.02-.07.07-.07.35,0,.72,0,1.1,0,1.14,0,1.51,1.44.53,2-.02.01-.02.02-.02.04l.57,1.58s0,.01,0,.02c0,.03-.03.06-.06.06h-.53s-.04-.01-.05-.03l-.55-1.52s-.02-.03-.04-.03h-.4Z"/>
      <path class="cls-3" d="M888.39,46.49c0,.78,1.05.78,1.05.01,0-.87,0-1.71,0-2.52,0-.04.02-.06.06-.06h.49s0,0,0,0c.03,0,.06.03.06.06,0,.78,0,1.6,0,2.46,0,.21-.02.38-.07.51-.21.59-.9.91-1.49.66-.3-.13-.51-.34-.63-.63-.06-.14-.09-.37-.09-.68,0-.82,0-1.6,0-2.33,0-.02.02-.04.04-.05h.5s0-.01,0-.01c.04,0,.06.03.06.06,0,.88,0,1.72,0,2.51"/>
      <path class="cls-3" d="M893.41,44.54v3.01s-.04.05-.06.05h-.53s-.02-3.03-.02-3.03c0-.03-.01-.04-.04-.04h-.74s-.05-.02-.05-.05v-.52s.02-.04.04-.04h2.18s.05.02.05.04v.52s-.02.05-.05.05h-.78Z"/>
      <path class="cls-3" d="M901.1,44.58v.8s.02.05.05.05h.53c.26,0,.47-.19.47-.43v-.02h0c0-.24-.21-.44-.47-.44h-.53s0,0,0,0c-.03,0-.05.02-.05.05ZM901.1,46.07v1.47s-.02.07-.07.07h-.48s0,0,0,0c-.04,0-.07-.03-.07-.07v-3.57s.03-.06.06-.06c.37,0,.74,0,1.13,0,1.04,0,1.47,1.27.65,1.9-.04.03-.08.06-.13.08-.02.01-.03.03-.02.06l.58,1.58s0,.01,0,.02c0,.03-.02.05-.05.05h-.55s-.04-.01-.05-.03l-.55-1.51s-.03-.04-.05-.04h-.37s-.04,0-.04.03Z"/>
      <path class="cls-3" d="M905.54,46.01s0,0,0,0c0,0,0,.02.02.02h.38s.02,0,.02-.02c0,0,0,0,0,0l-.19-.96s0-.02-.02-.02-.02,0-.02.02l-.2.96ZM906.05,46.64h-.59s-.05.02-.06.05l-.17.88s-.03.05-.06.05h-.5s-.06-.03-.06-.06c0,0,0,0,0-.01l.75-3.58s.03-.04.06-.04h.66s.05.02.06.05l.74,3.58s0,0,0,.01c0,.03-.03.06-.06.06h-.49s0,0,0,0c-.03,0-.05-.02-.06-.05l-.17-.88s-.03-.05-.06-.05h0Z"/>
      <path class="cls-3" d="M912.42,44.57v.8s.02.05.05.05h1.02s.05.02.05.05v.51s-.02.05-.05.05h-1.02s-.05.02-.05.05v.88s.02.05.05.05h1.25s.05.02.05.05v.52s0,0,0,0c0,.03-.02.05-.05.05h-1.88s-.05-.02-.05-.05v-3.6s.02-.05.05-.05h1.87s.05.02.05.05v.51s-.02.05-.04.05h-1.26s-.05.02-.05.05Z"/>
      <path class="cls-3" d="M919.44,46.08v.89s.01.03.03.03h1.27s.05.02.05.05v.51s0,0,0,0c0,.03-.02.06-.06.06h-1.86s-.05-.02-.05-.05v-3.58s.02-.04.04-.05c.03,0,.06,0,.1-.01.6,0,1.19,0,1.77,0,.04,0,.06.02.06.06v.49s-.02.06-.06.06h-1.26s-.03,0-.03.03v.83s.01.03.03.03h1.02s.07.03.07.08v.47s-.02.07-.07.07h-1.01s-.05.02-.05.05"/>
      <path class="cls-3" d="M923.48,45.31v2.24s-.02.05-.05.05h-.5s0,0,0,0c-.03,0-.06-.03-.06-.06v-3.56s.03-.07.07-.07h.48s0,0,0,0c.03,0,.06.02.07.04l1.01,2.11s.04.05.04,0v-2.09s.02-.06.06-.06h.49s.06.02.06.06v3.59s-.02.05-.05.05h-.42s-.07-.02-.09-.05l-1.07-2.25s-.03-.04-.03,0"/>
      <path class="cls-3" d="M932.23,47h1.26s.05.02.05.04v.52s0,0,0,0c0,.03-.02.05-.05.05h-1.87s-.05-.02-.05-.05v-3.6s.02-.05.04-.05h1.87s.05.02.05.04v.51s-.02.05-.04.05h-1.26s-.05.02-.05.05v.81s.02.05.05.05h1.03s.05.02.05.05v.52s-.02.05-.04.05h-1.03s-.05.02-.05.05v.88s.02.05.05.05Z"/>
      <path class="cls-3" d="M937.3,43.92h.57s.02,0,.02.01v3.66s0,.02-.02.02h-.5s-.01,0-.02,0l-1.08-2.28s0-.01-.02-.01c-.01,0-.02,0-.02.02h0s0,2.27,0,2.27c0,.01,0,.02-.02.02h-.58s-.02-.01-.02-.02v-3.65s0-.02.02-.02h.56s0,0,0,0c0,0,.01,0,.02.01l1.03,2.17s0,.01.02.01c.01,0,.02,0,.02-.02v-2.14s0-.02.01-.02Z"/>
      <path class="cls-3" d="M940.68,46.07v1.5s-.02.04-.04.04h-.53s-.04-.02-.04-.04v-3.61s.02-.04.04-.04h.53s.04.02.04.04v1.42s.02.04.04.04h.88s.04-.02.04-.04v-1.42s.02-.04.04-.04h.53s.04.02.04.04v3.61s-.02.04-.04.04h-.53s-.04-.02-.04-.04v-1.5s-.02-.04-.04-.04h-.88s-.04.02-.04.04Z"/>
      <path class="cls-3" d="M945.38,45.14s-.03-.08-.04-.12c0-.01,0-.01,0,0l-.19.98s0,0,0,0c0,.01,0,.03.02.03,0,0,0,0,0,0h.37s.03,0,.03-.02c0,0,0,0,0,0-.06-.29-.12-.57-.17-.86M944.99,46.69l-.18.88s-.03.04-.06.04h-.5s-.06-.02-.06-.05c0,0,0,0,0-.01l.75-3.58s.03-.04.05-.05h.66s.05.02.06.04l.74,3.58s0,0,0,.01c0,.03-.03.06-.06.06h-.5s-.05-.02-.06-.05l-.17-.88s-.03-.05-.06-.05h-.59s-.05.02-.06.05h0Z"/>
      <path class="cls-3" d="M949.03,44.57v.8h0s.02.04.04.04h.54c.26,0,.47-.2.47-.44h0c0-.26-.21-.45-.47-.45h-.54s-.04.02-.04.05h0ZM949.03,46.08v1.49s-.02.05-.05.05h-.52s-.05-.02-.05-.05v-3.59s.02-.06.06-.06c.36,0,.72,0,1.07,0,.46,0,.8.18,1.01.55.3.52.08,1.15-.43,1.44-.02.01-.03.03-.02.05l.57,1.58s0,.01,0,.02c0,.03-.02.05-.05.05h-.53s-.05-.01-.06-.04l-.54-1.49s-.03-.04-.06-.04h-.36s-.04.01-.04.04Z"/>
      <path class="cls-3" d="M953.77,44.57v2.39s.02.05.05.05h.36s.05.03.05.05v.51s-.02.05-.04.05h-1.42s-.05-.02-.05-.05h0s0-.52,0-.52c0-.03.02-.05.05-.05h.36s0,0,0,0c.03,0,.05-.02.05-.05v-2.39h0s-.02-.05-.05-.05h-.36s0,0,0,0c-.03,0-.05-.02-.05-.05v-.51s.02-.05.05-.05h1.42s.05.02.05.05v.51s-.02.05-.04.05h-.36s-.05.02-.05.05Z"/>
      <path class="cls-3" d="M957.01,46.01s0,0,0,0c0,0,0,.02.02.02h.38s.02,0,.02-.02c0,0,0,0,0,0l-.19-.96s0-.02-.02-.02-.02,0-.02.02l-.2.95ZM957.52,46.64h-.6s-.05.02-.05.05l-.18.88s-.03.04-.05.04h-.51s-.05-.02-.05-.05c0,0,0,0,0-.01l.75-3.59s.03-.04.05-.04h.66s.05.02.05.04l.74,3.59s0,0,0,.01c0,.03-.02.05-.05.05h-.51s-.05-.02-.05-.04l-.17-.89s-.03-.04-.05-.04h0Z"/>
      <path class="cls-3" d="M893.41,44.54v3.01s0,0,0,0c0,.04-.03.07-.06.07-.16.02-.33.02-.5.01-.02,0-.03-.01-.04-.03h.53s0,0,0,0c.03,0,.05-.02.05-.05v-3.01Z"/>
      <path class="cls-3" d="M888.24,28.91h0s-.01,0-.01.01c0,0,0,0,0,0,3.09,3.61,6.18,7.21,9.26,10.81.07.08.12.18.21.24.04.03.04.05-.01.05h-5.06s-.03,0-.05-.02l-12.73-14.95s-.02-.06.03-.06c3.73,0,7.48,0,11.24,0,1.92,0,2.54-1.55,2.68-3.19.17-2.03-.03-4.36-2.68-4.36-5.92,0-11.83,0-17.72,0-.04,0-.07-.02-.1-.04l-3.25-3.83s0,0,0-.01c0-.01.01-.02.02-.02,6.86,0,13.63,0,20.32,0,.59,0,1,.01,1.23.03,1.89.16,3.45.99,4.67,2.48.73.89,1.19,1.95,1.38,3.17.05.35.08.75.08,1.22,0,.51,0,1.03,0,1.53,0,.49-.02.9-.07,1.23-.29,1.84-1.18,3.32-2.68,4.44-.9.67-1.97,1.08-3.2,1.24-.25.03-.66.04-1.22.04-.67,0-1.45,0-2.33,0"/>
    </g>
    <g id="Objeto_generativo-5" data-name="Objeto generativo">
      <g>
        <polygon class="cls-3" points="127.15 35.25 123.14 35.29 114.45 22.84 114.44 35.3 110.37 35.3 110.39 15.72 114.39 15.64 123.09 28.08 123.22 15.71 127.2 15.67 127.15 35.25"/>
        <polygon class="cls-3" points="164.06 27.57 159.22 27.61 159.11 31.33 169.02 31.39 169.06 35.33 155.12 35.35 155.04 15.73 168.99 15.66 168.98 19.58 159.11 19.68 159.1 23.52 164.06 23.59 164.06 27.57"/>
        <polygon class="cls-3" points="198.79 35.27 194.82 35.33 194.8 19.7 188.48 19.63 188.43 15.68 205.16 15.68 205.13 19.58 198.8 19.66 198.79 35.27"/>
        <path class="cls-3" d="M72.21,31.21l3.82.12v3.98s-3.99-.03-3.99-.03c-4.61-.55-8-4.37-8.49-8.68-.53-4.7,2.26-9.03,6.8-10.53,1.84-.61,3.72-.41,5.68-.41v3.96s-2.96,0-2.96,0c-2.84,0-5.26,2.52-5.5,5.21-.26,2.95,1.49,5.72,4.63,6.37Z"/>
        <path class="cls-3" d="M143.53,31.22l3.82.12v3.99s-4.01-.05-4.01-.05c-3.57-.4-6.44-2.89-7.69-5.85-1.51-3.58-.85-7.51,1.56-10.26,1.77-2.01,3.77-3.41,6.45-3.45l3.66-.05.02,3.97-3.91.13c-2.66.65-4.52,3.02-4.58,5.59-.07,2.72,1.8,5.15,4.69,5.86Z"/>
        <rect class="cls-3" x="176.81" y="15.66" width="3.75" height="19.74"/>
        <path class="cls-3" d="M129.07,48.76c0,.48-.27.77-.68.7l-4.94-6.27v5.98c0,.21-.61.34-.83.14v-7.06c0-.32.2-.49.38-.52s.43.06.6.27l4.53,5.71.21-5.85c0-.18.54-.19.64-.06.13.17.19.36.18.68l-.1,6.27Z"/>
        <path class="cls-3" d="M135.51,49.16c-1.54.59-3.21.33-4.51-.46-.22-1.61,1.47.55,3.79-.07.65-.17.95-.64.92-1.22-.03-.54-.37-.91-1.01-1.11l-2.43-.75c-.71-.22-1.12-.81-1.18-1.37-.08-.74.13-1.46.87-1.93,1.25-.8,3.48-.98,4.42.66-1.42-.09-2.55-.89-3.75-.21-.48.27-.81.76-.75,1.24.06.5.45.84,1.02,1.01l2.43.74c.71.22,1.16.92,1.23,1.52.08.71-.16,1.61-1.05,1.95Z"/>
        <path class="cls-3" d="M157.99,41.93c0-.25.49-.23.54-.13.04.09.2.2.2.45v4.22c0,1.96-1.57,3.15-3.45,2.99-1.59-.14-2.82-1.12-2.84-2.79l-.04-4.41c0-.22.11-.4.19-.45.1-.05.28-.09.58.02l.08,4.85c.02,1.23.86,1.88,2.03,2.01,1.38.16,2.59-.52,2.62-2.01l.09-4.75Z"/>
        <path class="cls-3" d="M106.45,47.58c1.97,2.36,4.74.21,4.97.35,1.22.76-2.87,2.67-5.22.57-1.57-1.4-1.64-3.84-.42-5.35,2.03-2.5,5.59-1.16,5.85-.51.07.18,0,.41-.2.53-.26.16-2.78-1.89-4.84.22-1.09,1.12-1.11,3-.13,4.18Z"/>
        <path class="cls-3" d="M163.46,49.25c0,.26-.75.26-.77.02l-.09-.77-.05-5.98-2.43-.07c-.12-.07-.11-.64.02-.71l5.5-.02c.25,0,.37.13.45.2.16.14.14.56-.13.56l-2.44.02-.05,6.75Z"/>
        <path class="cls-3" d="M140.55,49.24c0,.29-.75.25-.75-.07l-.06-6.56c-.76-.19-1.49-.13-2.29-.09-.39.02-.41-.74-.2-.75l5.98-.04c.13.17.12.57.01.72l-2.61.06-.08,6.72Z"/>
        <path class="cls-3" d="M92.82,15.58c-5.47,0-9.89,4.43-9.89,9.89s4.43,9.89,9.89,9.89,9.89-4.43,9.89-9.89-4.43-9.89-9.89-9.89ZM92.83,31.34c-3.23,0-5.86-2.62-5.86-5.86s2.63-5.86,5.86-5.86,5.86,2.62,5.86,5.86-2.62,5.86-5.86,5.86Z"/>
        <path class="cls-3" d="M221.94,15.63c-5.47,0-9.89,4.43-9.89,9.89s4.43,9.89,9.89,9.89,9.89-4.43,9.89-9.89-4.43-9.89-9.89-9.89ZM221.93,31.35c-3.23,0-5.85-2.62-5.85-5.85s2.62-5.86,5.85-5.86,5.85,2.63,5.85,5.86-2.62,5.85-5.85,5.85Z"/>
        <path class="cls-3" d="M171.73,41.79c-1.65-.36-3.45.25-4.27,1.55-.9,1.42-.86,3.07,0,4.43.89,1.39,2.56,1.97,4.43,1.57,2.01-.43,3.07-2.18,2.97-3.98-.1-1.65-1.37-3.19-3.13-3.57ZM170.81,48.74c-1.76,0-3.17-1.42-3.17-3.17s1.42-3.17,3.17-3.17,3.17,1.42,3.17,3.17-1.42,3.17-3.17,3.17Z"/>
        <path class="cls-3" d="M120.81,44.92c-.29-2.23-2.37-3.49-4.6-3.19-2.25.29-3.65,2.25-3.41,4.33.24,2.18,2.18,3.63,4.59,3.36,2.53-.29,3.69-2.42,3.43-4.5ZM116.81,48.76c-1.76,0-3.19-1.43-3.19-3.18s1.43-3.19,3.19-3.19,3.18,1.43,3.18,3.19-1.43,3.18-3.18,3.18Z"/>
        <path class="cls-3" d="M182.24,48.82l-1.44-2.01c1.27-.5,1.86-1.66,1.72-2.8-.14-1.21-1.11-2.17-2.39-2.18l-3.58-.05v7.57c.25.11.58.09.77,0l.06-2.3c.86,0,2.18-.45,2.69.18l1.86,2.28c.58.07.59-.5.31-.69ZM179.74,46.24l-2.38-.03v-3.69h2.35c1.24,0,1.97.66,1.99,1.7.04,1.18-.62,2.02-1.97,2.02Z"/>
        <path class="cls-3" d="M150.49,43.72c-.17-1.05-1.17-1.92-2.46-1.94l-3.4-.03-.02,7.61c.32.09.54.08.8,0l.06-2.31c.79,0,1.82-.28,2.53.12,1.02.56,1.53,3.02,2.47,2.01l-1.62-2.37c1.43-.55,1.86-1.71,1.65-3.09ZM145.45,46.22v-3.7c1.07-.04,2.08-.15,3.08.09.85.21,1.18.93,1.2,1.62.02.67-.18,1.57-1.09,1.84-1.08.31-2.14.16-3.19.14Z"/>
        <g>
          <path class="cls-3" d="M41.41,44.05l-.06,5.06-29.69.03.18-.53,28.98-.05.04-3.96-28.95.03c.13,1.35,0,3.31-.26,4.51-.47-.45-.29-1.14-.29-1.86v-3.18l30.04-.04Z"/>
          <path class="cls-3" d="M41.46,9.48l-.06,4.55H11.47l-.1-4.9h28.75c.6,0,1.06.08,1.34.35-.36.26-.81.32-1.35.18H11.91l.08,3.83h28.89s.04-3.64.04-3.64l.54-.37Z"/>
          <path class="cls-3" d="M19.08,43.56l-7.78-.12.08-13.19c0-.29.13-.45.24-.52l7.45,13.03c-.19.08-.5.18-.59.06-1.92-3.04-3.88-6.62-5.6-9.81-.46-.61-.8-1.24-1-1.9l.03.19-.05,11.62,6.84.1.37-.27c.05.22.09.44,0,.81Z"/>
          <path class="cls-3" d="M47.18,8.53l-.18-5.39h-.41s-.04,5.3-.04,5.3c-1.05.34-1.96.1-2.96.11h-1.5s-.14-5.42-.14-5.42h-.41l-.1,5.43H11.36s.02-5.36.02-5.36c-.08-.14-.3-.33-.5-.32l-.1,5.61-4.48.03-.1-5.49c0-.15-.56-.12-.56.18v5.25s-5.53.15-5.53.15l-.06.38,5.52.12.08,4.95H.52c-.23,0-.55.2-.52.37.1.76,3-.24,5.67.29l-.07,28.71-5.37.19v.4l5.35.04.02,4.99c-1.96.22-3.65-.21-5.6.34,1.84.64,3.5.14,5.48.18l.13,4.58c.05.06.32.16.61.1l.06-4.64,4.48.03.17,4.57h.39s.03-4.52.03-4.52c.6-.1.71-.29.31-.55.27-1.2.39-3.16.26-4.51,0-.08-.02-.17-.03-.24l-.53-.29c2.8-.1,5.56-.19,8.28-.28.32-.11.45-.31.45-.53,0-.45-.52-.92-1.02-.54l-.37.27-6.84-.1.05-11.62-.03-.19s0-.02,0-.03l-.25-1.35c.28-.33.34-.59.19-.76-.1-.13-.3-.21-.6-.25.18-.14.22-.37.1-.68l-.04-13.14s.07-.04.09-.07c.06-.04.12-.08.16-.13.34-.29.32-.51-.06-.66l.52-.39v-.15l-.08-3.83h28.2c.54.13.99.08,1.35-.18.14.11.3.18.49.19.26.03.57-.03.92-.18l3.7-.04h.39l.18-.31c1.4,0,2.79-.07,4.17-.24l-4.14-.38ZM10.73,9.15c.19,1.55.18,2.95.03,4.87l-4.45.03-.03-4.94,4.45.04ZM10.73,49.04l-4.49-.05v-4.83l4.49-.13c.19,1.64.18,3.24,0,5.01ZM6.26,43.57V14.72s4.62,0,4.62,0l.02,28.87h-4.64Z"/>
          <path class="cls-3" d="M19.09,15.36c-2.2-.05-4.59-.08-7.16-.13l.03,11.51c2.18-3.8,4.34-7.59,6.52-11.38h.62s-7.45,12.98-7.45,12.98c-.06.06-.22-.04-.22-.24l-.05-13.29v-.13h.16l6.81.11c.29,0,.6,0,.76.16.08.07.04.3-.02.39Z"/>
          <g>
            <path class="cls-3" d="M40.79,36.25v.16c.03-.05.06-.09.08-.14l.42-1.75-.5,1.73ZM47.18,44.16l3.77-.09c.16-.12.32-.33.34-.51l-4.15-.14.05-28.61,3.56-.03c.29,0,.47-.15.47-.34,0-.18-.2-.37-.47-.37l-3.58.03c-.08-1.54-.27-3.1-.03-4.76,1.39-.29,2.73.34,4.17-.42l-8,.03c-.78,0-1.37.18-1.86.55l-.54.37-.04,3.64H11.99s-.34,0-.34,0l-.18.54c0,.3-.28.51-.28.85l.03,13.82c.3.27.52.34.6.25.07-.08.03-.29-.18-.6l.31-1.58v-.03l-.03-11.51c2.58.04,4.96.08,7.16.13.87.28,1.19-.67.29-.8-.13-.04-.14-.09-.04-.14,0,0,.02-.02.03-.02.07-.03.16-.07.29-.1l.32.53h15.66l.24-.53c.08.03.16.05.21.08.17.08.18.13.06.18-.59.5-.49.74.26.55,0-.18.24-.29.52-.29l4.52-.07-.13,8.59c-.76.17-.7.7-.03.81.29,3.12.14,6.24.13,9.55-1.26.05-2.39-.19-3.49.19-.07.73,2.25.75,3.01.51.08.06.19.1.35.11l.13,8.92-4.97.11c-.08-.36-.05-.57-.03-.8-.56-.15-.67.08-.87.54h-15.66l-.24.53h-7.95c-.19,0-.31.21-.33.28l.32.53h.24l28.95-.03-.04,3.96-28.98.05-.18.53c-.08.18-.17.37-.31.55l30.07-.03.1,4.54h.41l.08-4.54,4.43-.06.14,4.59h.4l.11-4.52,4.21-.07v-.4l-4.16-.16.03-4.88ZM42.06,49.04l-.06-4.96h4.52s.03,4.84.03,4.84c-1.46.36-2.93.23-4.49.13ZM41.96,43.55V14.73h4.59v28.83s-4.59,0-4.59,0ZM46.57,14.08h-4.62v-4.4c.26.03.57-.03.92-.18l3.7-.04v4.62ZM40.82,21.45v.18l.5,1.7-.43-1.75s-.04-.08-.08-.14ZM37.02,15.11c-.2-.14-.42-.2-.61,0,.24.04.47.08.71.12-.04-.07-.08-.1-.1-.12ZM41.09,24.69c.1-.03.18-.2.21-.53l-.21.53Z"/>
            <g>
              <path class="cls-3" d="M41.3,34.52l-.42,1.75c-.03.05-.06.09-.08.14-1.23,2.09-2.47,4.19-3.71,6.28l-.65.06,4.87-8.23Z"/>
              <path class="cls-3" d="M40.89,21.6s-.04-.08-.08-.14h0c-.5-1.02-3.09-5.43-3.7-6.22-.04-.07-.08-.1-.1-.12-.2-.14-.42-.2-.61,0l4.91,8.23-.43-1.75Z"/>
              <path class="cls-3" d="M46.57,9.25v.21l-3.7.04c-.34.15-.66.21-.92.18v-.43h4.62Z"/>
              <path class="cls-3" d="M19.66,14.3l-.27.26-4.91.04c-.11-.09-.14-.18-.15-.27l5.33-.03Z"/>
              <path class="cls-3" d="M36.14,14.56c-.12,0-.25-.14-.27-.26l4.8.02c0,.09-.04.18-.15.28l-4.39-.04Z"/>
            </g>
          </g>
          <g>
            <path class="cls-3" d="M37.28,33.96l.65-.06-3.75,6.32c-1.23.16-2.35.2-3.55-.02l3.54-6.37-9.16-.12-2.65-4.7,2.66-4.85,9.13-.11-3.45-6.27h3.57s3.45,6.1,3.45,6.1l-.58.05-3.15-5.56-2.36-.06,2.91,5.38c.03.43-.21.71-.56.91l-8.64.1c-.23.09-2.37,4.07-2.37,4.32s2.14,4.09,2.37,4.17l8.53.11c.6.07.77.5.62,1.06l-2.99,5.43,2.35-.04,3.43-5.78Z"/>
            <path class="cls-3" d="M37.72,23.88c.98.09,1.97.18,2.96.27h-2.43c-.29,0-.45-.13-.53-.27Z"/>
            <path class="cls-3" d="M41.3,24.16c-.03.33-.11.5-.21.53-.13.06-.3-.13-.41-.54h.62Z"/>
            <g>
              <path class="cls-3" d="M41.45,34.03l-3.51-.13-.65.06-3.43,5.78-2.35.04,2.99-5.43c.15-.55-.03-.99-.62-1.06l-8.53-.11c-.23-.08-2.37-3.93-2.37-4.17s2.13-4.22,2.37-4.32l8.64-.1c.35-.2.59-.48.56-.91l-2.91-5.38,2.36.06,3.15,5.56.58-.05c1,.07,1.98.16,2.96.27.11.4.28.6.41.54.1-.03.18-.2.21-.53l.03-.81-.43-1.75s-.04-.08-.08-.14h0c-.5-1.02-3.09-5.43-3.7-6.22-.04-.07-.08-.1-.1-.12-.2-.14-.42-.2-.61,0-.1-.17-.29-.3-.26-.55.02-.08,0-.13-.06-.18-.05-.03-.13-.06-.21-.08h-16.23c-.14.02-.23.05-.29.1,0,0-.02,0-.03.02-.03.04-.02.08.04.14.12.38-.15.55-.29.8h-.62c-2.18,3.8-4.34,7.59-6.52,11.39,0,.02-.02.03-.03.04-.24.55-.33,1.07-.29,1.56-.08.14-.16.28-.42.35,0,.38.23.71.4,1.02.03.46.11.92.25,1.35,0,0,0,.02,0,.03.2.66.54,1.28,1,1.9,1.72,3.19,3.68,6.77,5.6,9.81.08.13.39.03.59-.06.18.31.73.53.58,1.07h16.39c.08-.53.22-.79.38-1.07l.65-.06c1.24-2.09,2.48-4.19,3.71-6.28.03-.05.06-.09.08-.14l.42-1.75c-.09-.1.02-.31.15-.5ZM14.93,29.02l6.43-11.24,5.46-.03,1.77,3.1-5.4.13-4.56,8.03,4.56,8.03,5.35.1-1.66,3.13h-5.49l-6.46-11.25Z"/>
              <path class="cls-3" d="M40.68,24.15h-2.43c-.29,0-.45-.13-.53-.27l2.44-.02c.29,0,.48.11.52.29Z"/>
            </g>
          </g>
        </g>
        <path class="cls-3" d="M190.93,49.18l-3.16-6.99c-.15-.33-.43-.5-.71-.48-.27.03-.45.24-.6.58l-3,6.63c-.14.32.18.68.56.5l1.07-1.91c3.8-.07,3.8-.62,4.75,1.33.13.29.31.46.43.56.15.13.75-.03.66-.23ZM185.48,46.71l1.6-3.85,1.8,3.8-3.39.05Z"/>
      </g>
    </g>
  </g>
</svg>