<?xml version="1.0" encoding="UTF-8"?>
<svg id="Camada_2" data-name="Camada 2" xmlns="http://www.w3.org/2000/svg" viewBox="0 0 251.17 59.57">
  <defs>
    <style>
      .cls-1 {
        fill: #fff;
        fill-rule: evenodd;
        stroke-width: 0px;
      }
    </style>
  </defs>
  <g id="Camada_1-2" data-name="Camada 1">
    <path class="cls-1" d="M251.17,14.9h-9.5v34.83h-11.97c-7.28,0-12.1-4.56-12.1-11.4V14.9h-9.5v23.81c0,12.29,8.61,20.52,21.53,20.52h21.53V14.9h0ZM200.57,40.49h-32.53c1.39,5.56,6.21,9.25,12.95,9.25h19.57v9.5h-19.82c-13.49,0-22.61-9.06-22.61-22.17V14.9h42.44v9.5h-32.93v6.59h32.93v9.5h0ZM118.54,37.07c0,7.35,5.26,12.67,13.24,12.67h19.7v9.5h-20.08c-13.36,0-22.36-9.12-22.36-22.17s8.99-22.17,22.36-22.17h20.08v9.5h-19.7c-7.98,0-13.24,5.32-13.24,12.67h0ZM25.38,0C11,2.29,0,14.75,0,29.79s11,27.49,25.38,29.79v-11.25c-8.26-2.12-14.36-9.62-14.36-18.54s6.1-16.42,14.36-18.54V0h0ZM34.95,59.57c14.39-2.29,25.38-14.75,25.38-29.79S49.33,2.29,34.95,0v11.25c8.26,2.12,14.36,9.62,14.36,18.54s-6.1,16.42-14.36,18.54v11.25h0ZM74.4,59.24v-22.17c0-7.35,5.26-12.67,13.24-12.67h19.7v-9.5h-20.08c-13.36,0-22.36,9.12-22.36,22.17v22.17h9.5Z"/>
  </g>
</svg>